<svg xmlns="http://www.w3.org/2000/svg" version="1.1">
    <symbol id="behance" viewBox="0 0 32 32"><title>behance</title>
        <path class="icon-color" fill="#ccc" d="M1 16v-9.324h4.704c2.943 0 4.885 0.018 5.189 0.049 2.152 0.218 3.569 1.058 4.321 2.561 0.383 0.765 0.56 1.832 0.458 2.767-0.159 1.465-0.722 2.373-1.903 3.067l-0.326 0.192 0.342 0.155c0.524 0.238 0.943 0.541 1.362 0.983 0.315 0.333 0.425 0.493 0.636 0.925 0.4 0.82 0.468 1.165 0.465 2.349-0.003 0.91-0.012 1.018-0.126 1.442-0.397 1.475-1.45 2.8-2.741 3.449-0.663 0.333-1.585 0.556-2.728 0.659-0.326 0.029-2.336 0.049-5.095 0.049l-4.556 0v-9.324zM10.562 21.964c0.51-0.142 0.768-0.277 1.072-0.558 0.431-0.399 0.658-0.923 0.727-1.681 0.115-1.264-0.481-2.133-1.694-2.47-0.351-0.098-0.471-0.103-2.861-0.119l-2.495-0.017v4.978l2.448-0.017c2.32-0.016 2.467-0.022 2.803-0.116zM10.358 13.924c0.441-0.117 0.87-0.328 1.103-0.543 0.658-0.607 0.71-2.085 0.098-2.766-0.261-0.29-0.565-0.439-1.165-0.57-0.437-0.095-0.623-0.104-2.776-0.123l-2.308-0.021v4.137l2.378-0.019c2.023-0.016 2.421-0.030 2.67-0.096zM23.864 25.18c-1.285-0.093-2.455-0.496-3.537-1.22-1.099-0.735-1.754-1.59-2.17-2.835-0.62-1.853-0.533-4.652 0.2-6.389 0.334-0.791 0.721-1.348 1.38-1.982 1.26-1.213 2.929-1.786 4.968-1.706 1.133 0.044 2.159 0.288 3.008 0.715 1.411 0.71 2.521 2.124 2.975 3.792 0.188 0.692 0.255 1.253 0.285 2.401l0.029 1.089h-9.755l0.025 0.246c0.136 1.347 0.667 2.235 1.615 2.699 0.605 0.296 0.888 0.355 1.706 0.355 0.647-0 0.733-0.011 1.078-0.13 0.633-0.219 1.077-0.57 1.414-1.116l0.169-0.274h3.556l-0.033 0.197c-0.194 1.147-1.363 2.612-2.666 3.341-1.122 0.627-2.687 0.928-4.243 0.816zM27.35 16.551c-0.17-1.176-0.634-1.873-1.551-2.328-0.955-0.474-2.348-0.404-3.17 0.158-0.546 0.373-0.997 1.088-1.197 1.898-0.054 0.218-0.098 0.413-0.098 0.433s1.36 0.038 3.023 0.038h3.023l-0.029-0.199zM20.584 8.363v-0.937h7.496v1.874h-7.496v-0.937z"></path>
    </symbol>
    <symbol id="codepen" viewBox="0 0 32 32"><title>codepen</title>
        <path class="icon-color" fill="#ccc" d="M15.671 30.962c-0.239-0.073-0.573-0.291-7.317-4.788-4.934-3.29-6.928-4.643-7.053-4.789-0.328-0.384-0.315-0.143-0.301-5.487l0.013-4.804 0.125-0.235c0.069-0.129 0.185-0.29 0.258-0.358s3.269-2.212 7.1-4.766c5.746-3.829 7.010-4.652 7.214-4.701 0.275-0.066 0.608-0.034 0.826 0.078 0.076 0.039 3.266 2.156 7.088 4.705 4.655 3.103 6.998 4.692 7.098 4.813 0.305 0.371 0.292 0.112 0.278 5.462l-0.013 4.852-0.102 0.188c-0.056 0.103-0.183 0.264-0.281 0.358-0.253 0.24-13.966 9.369-14.194 9.45-0.2 0.070-0.546 0.081-0.739 0.022zM14.734 24.298v-3.002l-5.619-3.747-2.233 1.5c-1.228 0.825-2.232 1.515-2.232 1.533 0.002 0.035 9.989 6.708 10.049 6.714 0.019 0.002 0.035-1.348 0.035-2.999zM27.364 20.595c0.020-0.018-0.981-0.711-2.224-1.539l-2.26-1.506-5.563 3.723-0.004 6.028 5.007-3.336c2.754-1.835 5.024-3.351 5.044-3.369zM18.285 17.532c1.244-0.832 2.262-1.524 2.262-1.537s-1.023-0.705-2.274-1.537l-2.275-1.514-4.555 3.061 2.267 1.516c1.247 0.834 2.278 1.518 2.291 1.52s1.041-0.677 2.285-1.51zM5.223 17.058c0.845-0.568 1.536-1.046 1.536-1.064s-0.718-0.509-1.595-1.094l-1.595-1.063v2.161c0 1.715 0.012 2.154 0.059 2.127 0.032-0.019 0.75-0.499 1.595-1.066zM28.43 15.994v-2.159l-1.593 1.069c-0.876 0.588-1.588 1.085-1.583 1.104 0.007 0.027 3.111 2.129 3.164 2.143 0.006 0.002 0.012-0.969 0.012-2.156zM11.919 12.581c1.483-0.992 2.724-1.829 2.756-1.859 0.046-0.043 0.056-0.691 0.047-3.043l-0.012-2.988-5.031 3.354c-2.767 1.845-5.030 3.37-5.029 3.389 0.003 0.064 4.471 3.009 4.522 2.98 0.028-0.016 1.264-0.84 2.747-1.833zM25.15 12.938l2.247-1.509-1.066-0.711c-0.586-0.391-2.855-1.904-5.042-3.362l-3.975-2.651v6.019l2.779 1.859c1.529 1.023 2.786 1.86 2.795 1.862s1.027-0.677 2.262-1.507z"></path>

    </symbol>
    <symbol id="github" viewBox="0 0 32 32"><title>codepen</title>
        <path class="icon-color" fill="#ccc" d="M10.585 30.793c-0.885-0.332-2.23-1.022-3.034-1.558-0.962-0.641-1.644-1.197-2.424-1.977-3.48-3.48-5.077-8.37-4.326-13.248 0.65-4.224 3.104-8.055 6.683-10.432 5.69-3.779 13.152-3.368 18.388 1.012 4.854 4.060 6.72 10.667 4.715 16.69-1.482 4.451-5.080 8.105-9.467 9.615-0.546 0.188-0.923 0.126-1.154-0.189-0.097-0.132-0.1-0.203-0.127-2.813-0.026-2.561-0.032-2.695-0.134-3.085-0.135-0.516-0.378-1.023-0.652-1.359l-0.214-0.263 0.682-0.107c0.824-0.13 1.614-0.328 2.187-0.55 2.425-0.937 3.739-2.776 4.047-5.667 0.072-0.675 0.061-1.817-0.022-2.33-0.167-1.032-0.692-2.175-1.314-2.864-0.166-0.184-0.169-0.193-0.113-0.389 0.179-0.619 0.218-0.899 0.219-1.571 0.002-0.754-0.064-1.177-0.301-1.92l-0.131-0.412-0.359-0.014c-0.816-0.031-2.184 0.492-3.459 1.323l-0.407 0.265-0.555-0.127c-2.211-0.504-4.522-0.498-6.721 0.018l-0.444 0.104-0.469-0.294c-1.321-0.828-2.566-1.3-3.426-1.3h-0.33l-0.094 0.252c-0.254 0.682-0.421 1.784-0.368 2.416 0.037 0.431 0.157 1.060 0.243 1.267 0.065 0.158 0.063 0.166-0.142 0.409-0.683 0.811-1.144 1.84-1.311 2.925-0.156 1.013-0.019 2.777 0.302 3.886 0.498 1.723 1.627 3.062 3.207 3.802 0.779 0.365 1.94 0.689 2.947 0.821l0.44 0.058-0.26 0.341c-0.28 0.366-0.506 0.882-0.615 1.402-0.036 0.173-0.074 0.321-0.083 0.328-0.064 0.050-0.501 0.193-0.83 0.272-0.489 0.117-1.264 0.126-1.681 0.018-0.736-0.19-1.357-0.687-1.916-1.535-0.685-1.040-1.545-1.611-2.426-1.611-0.843 0-0.848 0.394-0.011 0.945 0.643 0.424 1.053 0.957 1.588 2.069 0.319 0.662 0.371 0.741 0.733 1.1 0.936 0.929 2.271 1.245 4.039 0.955 0.235-0.039 0.436-0.062 0.446-0.051s0.023 0.712 0.029 1.56c0.010 1.49 0.007 1.546-0.089 1.675-0.311 0.419-0.658 0.452-1.488 0.141zM10.322 26.248c-0.053-0.053-0.083-0.128-0.066-0.17 0.090-0.235 0.642-0.215 0.642 0.023 0 0.233-0.39 0.333-0.576 0.147zM11.511 26.147c-0.205-0.119-0.010-0.381 0.284-0.381 0.142 0 0.305 0.1 0.305 0.187 0 0.020-0.050 0.083-0.111 0.141-0.118 0.111-0.336 0.135-0.478 0.053zM9.129 26.076c-0.152-0.106-0.141-0.299 0.019-0.36 0.154-0.059 0.466 0.074 0.491 0.209 0.039 0.209-0.289 0.306-0.51 0.151zM8.091 25.429c-0.135-0.16-0.143-0.188-0.097-0.308 0.088-0.229 0.569 0.037 0.539 0.298-0.024 0.205-0.272 0.211-0.441 0.010zM7.384 24.568c-0.158-0.158-0.175-0.251-0.065-0.361 0.103-0.102 0.149-0.096 0.287 0.042 0.181 0.181 0.146 0.459-0.058 0.459-0.013 0-0.087-0.063-0.164-0.141zM6.87 23.79c-0.125-0.047-0.23-0.243-0.188-0.353 0.072-0.186 0.417 0.006 0.417 0.232 0 0.135-0.078 0.177-0.229 0.12zM6.115 23.075c-0.183-0.202 0.071-0.338 0.266-0.143 0.079 0.079 0.088 0.114 0.042 0.168-0.080 0.096-0.208 0.086-0.308-0.025z"></path>

    </symbol>
    <symbol id="linkedin" viewBox="0 0 32 32"><title>linkedin</title>
        <path class="icon-color" fill="#ccc" d="M1.347 20.655v-9.688h6.427v19.376h-6.427v-9.688zM11.363 20.655v-9.688l6.404-0 0.005 2.744 0.103-0.137c0.057-0.075 0.228-0.305 0.381-0.51 0.773-1.039 1.849-1.82 3.043-2.21 1.46-0.476 3.435-0.44 4.963 0.092 2.335 0.813 3.896 2.745 4.477 5.54 0.233 1.122 0.228 0.945 0.245 7.605l0.016 6.251h-6.431v-5.421c0-3.476-0.018-5.584-0.049-5.876-0.256-2.357-1.386-3.504-3.369-3.422-0.856 0.036-1.405 0.241-2.035 0.761-0.503 0.415-1.046 1.243-1.215 1.854-0.045 0.161-0.065 1.613-0.084 6.146l-0.026 5.935-6.427 0.024v-9.688zM4.091 8.311c-1.334-0.197-2.268-0.813-2.765-1.825-0.252-0.512-0.326-0.856-0.326-1.501 0-0.641 0.074-0.982 0.324-1.501 0.399-0.828 1.197-1.45 2.204-1.72 0.538-0.144 1.62-0.144 2.158 0 1.145 0.307 1.975 1.062 2.354 2.142 0.123 0.35 0.132 0.424 0.13 1.103-0.001 0.666-0.012 0.756-0.125 1.071-0.182 0.505-0.392 0.832-0.792 1.234-0.413 0.415-0.982 0.728-1.611 0.886-0.361 0.091-1.256 0.155-1.551 0.112z"></path>

    </symbol>
    <symbol id="link" viewBox="0 0 32 32">
	<title>link</title>
    <path class="icon-color" fill="#ccc" fill-opacity="1" fill-rule="evenodd" stroke-linejoin="round" d="M 10.9021,18.9985C 11.3224,19.5199 11.81,20.013 12.3616,20.4627L 13.3655,21.184C 16.5468,23.184 20.3439,23.0384 22.2587,20.6899L 29.1312,12.2604C 31.2523,9.65875 30.2602,5.33897 26.9153,2.61187C 23.5703,-0.115227 19.1392,-0.216949 17.0182,2.38467L 14.9492,4.92233L 15.9531,5.6436C 16.5047,6.09332 16.9923,6.58635 17.4126,7.10785L 19.3662,4.71169C 20.5941,3.2055 23.1595,3.26438 25.096,4.84323C 27.0326,6.42208 27.607,8.923 26.379,10.4292L 19.9107,18.3629C 18.8929,19.6112 16.9565,19.7845 15.2208,18.9084L 14.1808,18.2314C 13.6069,17.7634 13.1526,17.2145 12.8294,16.6345L 10.9021,18.9985 Z M 18.6345,10.816C 15.4532,8.81599 11.6561,8.96156 9.74132,11.3101L 2.86876,19.7396C 0.747681,22.3412 1.73981,26.661 5.08474,29.3881C 8.42967,32.1152 12.8607,32.217 14.9818,29.6153L 17.0508,27.0777L 16.0469,26.3564C 15.4953,25.9067 15.0076,25.4136 14.5874,24.8921L 12.6338,27.2883C 11.4058,28.7945 8.84048,28.7356 6.90394,27.1568C 4.96741,25.5779 4.39302,23.077 5.62101,21.5708L 12.0893,13.6371C 13.1071,12.3888 15.0435,12.2155 16.7792,13.0916L 17.8192,13.7686C 18.3931,14.2366 18.8474,14.7855 19.1706,15.3655L 21.0979,13.0016C 20.6776,12.4801 20.19,11.987 19.6384,11.5373L 18.6345,10.816 Z "/>
    </symbol>
    <symbol id="logo" viewBox="0 0 60 96">
	<title>logo</title>
    <path class="icon-color" fill="#00171F" fill-opacity="1" stroke-width="0.2" stroke-linejoin="round" d="M 57.3837,44L 57.6797,44.6801C 58.4786,46.5639 59.0826,48.4451 59.0166,50.3172L 58.9834,50.8099C 58.7028,53.6121 56.8247,56.3927 54.9466,59.1732L 29.9834,96L 5.02017,59.1732C 3.14209,56.3927 1.26402,53.6121 0.983398,50.8099C 0.702789,48.0076 2.01963,45.1836 3.33648,42.3597L 19.1386,8.4719L 23.0891,2.54313e-006C 25.123,3.01126 27.1568,6.02249 27.5153,8.94004C 27.8739,11.8577 26.557,14.6817 25.2402,17.5056L 12.4545,44.9247C 11.449,47.0809 10.4436,49.2371 10.644,51.3562C 10.8444,53.4754 12.2506,55.5574 13.6569,57.6395L 24.0143,72.9741C 25.2572,74.8142 26.9707,76.9191 27.9834,77L 29.9834,77L 31.9834,77C 32.9961,76.9191 34.7096,74.8142 35.9524,72.9741L 46.3099,57.6395C 47.7161,55.5574 49.1224,53.4754 49.3228,51.3562C 49.5232,49.2371 48.5178,47.0809 47.5123,44.9247L 47.0811,44L 41.7562,32.5805L 33.7601,49.7281L 29.8096,58.2C 27.7757,55.1887 25.7419,52.1775 25.3834,49.2599C 25.0249,46.3423 26.3417,43.5183 27.6585,40.6944L 36.5991,21.5212L 40.013,14.2L 40.0156,14.2L 40.769,12.5597L 41.7517,10.4523L 46.9132,21.5212L 56.6303,42.3597L 57.3837,44 Z "/>
    </symbol>
    <symbol id="email" viewBox="0 0 64 64">
	    <title>email</title>
      <path fill="#CCCCCC" fill-opacity="1" stroke-width="0.32" stroke-linejoin="round" d="M 58.4222,11.3778L 5.57778,11.3778C 4.15411,11.3778 3,12.5319 3,13.9556L 3,50.0444C 3,51.4681 4.15411,52.6222 5.57778,52.6222L 58.4222,52.6222C 59.8459,52.6222 61,51.4681 61,50.0444L 61,13.9556C 61,12.5319 59.8459,11.3778 58.4222,11.3778 Z M 57.7778,12.6667L 57.7778,15.2445L 32,28.1333L 6.22221,15.2445L 6.22221,12.6667L 32,25.5556L 57.7778,12.6667 Z "/>
    </symbol>
</svg>
