<?xml version="1.0" encoding="utf-8"?> <!DOCTYPE svg PUBLIC "-//W3C//DTD SVG 1.1//EN" "http://www.w3.org/Graphics/SVG/1.1/DTD/svg11.dtd"> <svg xmlns="http://www.w3.org/2000/svg" xmlns:xlink="http://www.w3.org/1999/xlink" version="1.1" baseProfile="full" width="60" height="96" viewBox="0 0 60.00 96.00" enable-background="new 0 0 60.00 96.00" xml:space="preserve"> <path fill="#ccc"  stroke-linejoin="round" d="M 57.3837,44L 57.6797,44.6801C 58.4786,46.5639 59.0826,48.4451 59.0166,50.3172L 58.9834,50.8099C 58.7028,53.6121 56.8247,56.3927 54.9466,59.1732L 29.9834,96L 5.02017,59.1732C 3.14209,56.3927 1.26402,53.6121 0.983398,50.8099C 0.702789,48.0076 2.01963,45.1836 3.33648,42.3597L 19.1386,8.4719L 23.0891,2.54313e-006C 25.123,3.01126 27.1568,6.02249 27.5153,8.94004C 27.8739,11.8577 26.557,14.6817 25.2402,17.5056L 12.4545,44.9247C 11.449,47.0809 10.4436,49.2371 10.644,51.3562C 10.8444,53.4754 12.2506,55.5574 13.6569,57.6395L 24.0143,72.9741C 25.2572,74.8142 26.9707,76.9191 27.9834,77L 29.9834,77L 31.9834,77C 32.9961,76.9191 34.7096,74.8142 35.9524,72.9741L 46.3099,57.6395C 47.7161,55.5574 49.1224,53.4754 49.3228,51.3562C 49.5232,49.2371 48.5178,47.0809 47.5123,44.9247L 47.0811,44L 41.7562,32.5805L 33.7601,49.7281L 29.8096,58.2C 27.7757,55.1887 25.7419,52.1775 25.3834,49.2599C 25.0249,46.3423 26.3417,43.5183 27.6585,40.6944L 36.5991,21.5212L 40.013,14.2L 40.0156,14.2L 40.769,12.5597L 41.7517,10.4523L 46.9132,21.5212L 56.6303,42.3597L 57.3837,44 Z "/> </svg>
