
<svg xmlns="http://www.w3.org/2000/svg" xmlns:xlink="http://www.w3.org/1999/xlink" version="1.1" baseProfile="full" width="1322" height="142" viewBox="0 0 1322.00 142.00" enable-background="new 0 0 1322.00 142.00" xml:space="preserve">
	<filter id="Filter_DropShadow1_" filterUnits="userSpaceOnUse">
		<feGaussianBlur in="SourceAlpha" stdDeviation="13.5" result="blur"/>
		<feOffset dx="-3.2729e-015" dy="17.8169" in="blur" result="offsetBlurredAlpha"/>
		<feMerge>
			<feMergeNode in="offsetBlurredAlpha"/>
			<feMergeNode in="SourceGraphic"/>
		</feMerge>
	</filter>
	<path fill="#F5F5F5" style="opacity:0.1" fill-opacity="1" stroke-width="0.2" stroke-linejoin="round" filter="url(#Filter_DropShadow1_)" d="M 21.2813,3.77148L 724.685,3.77148C 727.447,3.77148 742.756,6.01025 758.879,8.77148L 1274.03,96.9995C 1290.15,99.7612 1300.98,102 1298.22,102L 594.815,102C 592.054,102 576.745,99.7612 560.621,96.9995L 45.4752,8.77148C 29.3519,6.01025 18.5199,3.77148 21.2813,3.77148 Z "/>
	<filter id="Filter_DropShadow2_" filterUnits="userSpaceOnUse">
		<feGaussianBlur in="SourceAlpha" stdDeviation="13.5" result="blur"/>
		<feOffset dx="-3.2729e-015" dy="17.8169" in="blur" result="offsetBlurredAlpha"/>
		<feMerge>
			<feMergeNode in="offsetBlurredAlpha"/>
			<feMergeNode in="SourceGraphic"/>
		</feMerge>
	</filter>
	<path fill="#F5F5F5" style="opacity:0.1" fill-opacity="1" stroke-width="0.2" stroke-linejoin="round" filter="url(#Filter_DropShadow2_)" d="M 691.005,51.9995L 1008.9,51.9995C 1011.66,51.9995 1026.97,54.2383 1043.09,56.9995L 1276.64,96.9995C 1292.76,99.7612 1303.6,102 1300.83,102L 982.943,102C 980.182,102 964.873,99.7612 948.749,96.9995L 715.198,56.9995C 699.075,54.2383 688.243,51.9995 691.005,51.9995 Z "/>
	<filter id="Filter_DropShadow3_" filterUnits="userSpaceOnUse">
		<feGaussianBlur in="SourceAlpha" stdDeviation="13.5" result="blur"/>
		<feOffset dx="-3.2729e-015" dy="17.8169" in="blur" result="offsetBlurredAlpha"/>
		<feMerge>
			<feMergeNode in="offsetBlurredAlpha"/>
			<feMergeNode in="SourceGraphic"/>
		</feMerge>
	</filter>
	<path fill="#F5F5F5" style="opacity:0.1" fill-opacity="1" stroke-width="0.2" stroke-linejoin="round" filter="url(#Filter_DropShadow3_)" d="M 21.2809,2L 310.03,2C 312.792,2 328.101,4.23877 344.224,7L 449.999,25.1157C 466.123,27.8774 476.955,30.1157 474.193,30.1157L 185.444,30.1157C 182.682,30.1157 167.373,27.8774 151.25,25.1157L 45.4748,7C 29.3514,4.23877 18.5195,2 21.2809,2 Z "/>
	<filter id="Filter_DropShadow4_" filterUnits="userSpaceOnUse">
		<feGaussianBlur in="SourceAlpha" stdDeviation="13.5" result="blur"/>
		<feOffset dx="-3.2729e-015" dy="17.8169" in="blur" result="offsetBlurredAlpha"/>
		<feMerge>
			<feMergeNode in="offsetBlurredAlpha"/>
			<feMergeNode in="SourceGraphic"/>
		</feMerge>
	</filter>
	<path fill="#F5F5F5" style="opacity:0.1" fill-opacity="1" stroke-width="0.2" stroke-linejoin="round" filter="url(#Filter_DropShadow4_)" d="M 366,2.00049L 715.031,2.00049C 717.792,2.00049 733.101,4.23877 749.225,7.00049L 836.806,22.0005C 852.93,24.7617 863.761,27.0005 861,27.0005L 511.97,27.0005C 509.208,27.0005 493.899,24.7617 477.776,22.0005L 390.194,7.00049C 374.071,4.23877 363.239,2.00049 366,2.00049 Z "/>
</svg>
