<svg viewBox="0 0 736 63" xmlns="http://www.w3.org/2000/svg" cursor="pointer" fill-rule="evenodd" clip-rule="evenodd" stroke-linejoin="round" stroke-miterlimit="1.4"><path d="M13.3 22c2-3.9 5.4-5.9 10.4-5.9 3.4 0 5.7.9 7 2.5.8.8 1.3 1.9 1.7 3.2.3 1.3.4 3 .4 5.1v17.3c0 1.7.3 3 1 3.6.5.6 1.6 1 3.1 1V50l-8.4-.2c-1.5 0-4.2 0-8.3.2v-1.3c1.2 0 2.1-.4 2.6-1 .6-.7.8-1.9.8-3.6v-20c0-1.7-.3-3-.8-4-.6-.8-1.7-1.3-3.2-1.3-1.7 0-3.2.7-4.5 2.1a7.7 7.7 0 0 0-1.8 5.3v17.9c0 1.7.3 3 .8 3.6.5.6 1.4 1 2.7 1V50a251.2 251.2 0 0 0-16.8 0v-1.3c1.5 0 2.5-.4 3.2-1 .6-.7.9-1.9.9-3.6V7.7c0-2-.3-3.3-1-4.2C2.6 2.5 1.6 2 0 2V.8A42.5 42.5 0 0 0 13.3 0v22z" fill="url(#_Linear1)" fill-rule="nonzero"/><path d="M58 45.8c3.5 0 6.4-1.7 8.5-5.2l1.1.4c-.8 2.8-2.3 5.2-4.5 7.1-2.2 2-5 3-8.3 3a14 14 0 0 1-10.7-4.4c-2.7-2.9-4-7.1-4-12.8 0-5.7 1.4-10.1 4.3-13.2 2.8-3 6.6-4.6 11.3-4.6 8 0 12 4.8 12 14.2h-18v3c0 2.9.4 5.2 1.2 7a9 9 0 0 0 3 4.2c1.3.8 2.7 1.3 4.1 1.3zm-2.6-28.3c-1.6 0-2.8 1-3.8 2.8-1 2-1.7 4.9-2 8.8h10.1c.1-3.4-.2-6.1-1-8.3-.7-2.2-1.8-3.3-3.3-3.3z" fill="url(#_Linear2)" fill-rule="nonzero"/><path d="M84.5 44.2c0 1.7.3 3 1 3.6.5.6 1.6 1 3.1 1V50l-8.5-.2-8.9.2v-1.3c1.5 0 2.6-.4 3.2-1 .6-.7 1-1.9 1-3.6V7.7c0-2-.4-3.4-1-4.3-.6-.9-1.7-1.4-3.2-1.4V.7A42.5 42.5 0 0 0 84.5 0v44.2z" fill="url(#_Linear3)" fill-rule="nonzero"/><path d="M104.8 44.2c0 1.7.3 3 1 3.6.5.6 1.6 1 3.1 1V50l-8.5-.2-8.9.2v-1.3c1.5 0 2.6-.4 3.2-1 .6-.7 1-1.9 1-3.6V7.7c0-2-.4-3.4-1-4.3C94 2.5 93 2 91.5 2V.7a42.5 42.5 0 0 0 13.3-.7v44.2z" fill="url(#_Linear4)" fill-rule="nonzero"/><path d="M127.6 16.1c4.9 0 8.7 1.4 11.5 4.2 2.7 2.8 4.1 7.2 4.1 13.3 0 6-1.4 10.5-4.1 13.2a15.6 15.6 0 0 1-11.5 4.2c-5 0-8.7-1.4-11.5-4.2-2.8-2.7-4.2-7.1-4.2-13.2 0-6 1.4-10.5 4.2-13.3 2.8-2.8 6.6-4.2 11.5-4.2zm0 1.3c-1.9 0-3.3 1.3-4.4 4-1.1 2.7-1.7 6.7-1.7 12.2 0 5.5.6 9.5 1.7 12.2 1 2.6 2.5 4 4.4 4 1.8 0 3.3-1.4 4.4-4 1-2.6 1.6-6.7 1.6-12.2 0-5.5-.6-9.6-1.7-12.2-1-2.7-2.5-4-4.3-4z" fill="url(#_Linear5)" fill-rule="nonzero"/><path d="M154.3 41.2c1.7 0 3 .4 4 1.3 1 .8 1.4 2 1.4 3.6 0 1.5-.4 2.7-1.4 3.6-1 .9-2.3 1.3-4 1.3-1.7 0-3-.4-4-1.3s-1.4-2-1.4-3.6.5-2.8 1.4-3.6c1-1 2.3-1.3 4-1.3z" fill="url(#_Linear6)" fill-rule="nonzero"/><path d="M194.8 23.2a3 3 0 0 1-2.2-.9c-.6-.6-.9-1.4-.9-2.5 0-1 .3-2 .8-3.1-1 .4-1.9 1-2.5 1.4-.7.6-1.2 1.2-1.7 2 1.3 1.6 2 3.7 2 6.2 0 3.4-1.2 6-3.5 7.6a15.3 15.3 0 0 1-9.3 2.6h-1.1c-1.8 1-2.6 2.1-2.6 3.4 0 1.3.8 2 2.5 2h7c3.8 0 6.7.7 9 2.1a7 7 0 0 1 3.3 6.4c0 2.1-.6 4.1-2 5.9a14.1 14.1 0 0 1-6.3 4.2c-2.9 1.1-6.3 1.6-10.4 1.6-4.1 0-7.5-.5-10-1.5s-3.7-2.6-3.7-4.5c0-1.4.6-2.5 1.8-3.6 1.2-1 3-1.9 5.3-2.5l.6 1c-1.6 1.4-2.3 2.8-2.3 4.5 0 1.8.8 3.2 2.4 4.1 1.6 1 3.9 1.5 6.7 1.5 3 0 5.4-.6 7.3-1.8a5.7 5.7 0 0 0 2.8-5 4 4 0 0 0-1.6-3.4c-1-.8-2.9-1.2-5.5-1.2h-4c-2.7 0-4.8-.5-6.3-1.4A4.6 4.6 0 0 1 168 44c0-1.6.5-3 1.6-4.2 1.1-1.3 2.8-2.5 5-3.6-3-.4-5.4-1.4-7.2-3a9 9 0 0 1-2.7-7c0-3.4 1.2-5.9 3.5-7.6 2.3-1.7 5.4-2.6 9.2-2.6 4.3 0 7.6 1 9.8 3 .8-1.1 1.8-2 3-2.7 1.2-.7 2.4-1 3.7-1 1.3 0 2.3.3 3 1a4 4 0 0 1 1.1 3c0 1.2-.3 2.1-1 2.8-.6.6-1.4 1-2.3 1zm-17.3 12.1c1.2 0 2.1-.7 2.8-2 .6-1.4.9-3.7.9-7s-.3-5.6-1-7c-.6-1.3-1.5-2-2.7-2-1.2 0-2 .7-2.7 2-.6 1.4-1 3.7-1 7s.4 5.6 1 7c.6 1.3 1.5 2 2.7 2z" fill="url(#_Linear7)" fill-rule="nonzero"/><path d="M208.2.5c1.8 0 3.2.4 4.2 1.3S214 4 214 5.4c0 1.6-.5 2.8-1.6 3.7-1 .8-2.4 1.3-4.2 1.3-1.8 0-3.2-.5-4.3-1.3-1-1-1.5-2.1-1.5-3.7 0-1.5.5-2.7 1.5-3.6 1-.9 2.5-1.3 4.3-1.3zm5 43.7c0 1.7.3 3 1 3.6.5.6 1.6 1 3 1V50a266.4 266.4 0 0 0-17.3 0v-1.3c1.5 0 2.6-.4 3.2-1 .6-.7.9-1.9.9-3.6V24a8 8 0 0 0-1-4.3c-.5-.9-1.6-1.3-3.1-1.3V17a42.5 42.5 0 0 0 13.3-.7v27.9z" fill="url(#_Linear8)" fill-rule="nonzero"/><path d="M236.5 16.1c5 0 8.8 1.4 11.6 4.2 2.7 2.8 4.1 7.2 4.1 13.3 0 6-1.4 10.5-4.1 13.2a15.6 15.6 0 0 1-11.6 4.2c-4.8 0-8.6-1.4-11.4-4.2-2.8-2.7-4.2-7.1-4.2-13.2 0-6 1.4-10.5 4.2-13.3 2.8-2.8 6.6-4.2 11.4-4.2zm0 1.3c-1.8 0-3.3 1.3-4.3 4-1.1 2.7-1.7 6.7-1.7 12.2 0 5.5.6 9.5 1.7 12.2 1 2.6 2.5 4 4.3 4 2 0 3.4-1.4 4.5-4 1-2.6 1.6-6.7 1.6-12.2 0-5.5-.6-9.6-1.7-12.2-1-2.7-2.5-4-4.4-4z" fill="url(#_Linear9)" fill-rule="nonzero"/><path d="M268.6 44.2c0 1.7.3 3 .9 3.6.6.6 1.7 1 3.2 1V50l-8.6-.2-8.8.2v-1.3c1.5 0 2.5-.4 3.2-1 .6-.7.9-1.9.9-3.6V7.7c0-2-.3-3.4-1-4.3-.6-.9-1.6-1.4-3.1-1.4V.7a42.5 42.5 0 0 0 13.3-.7v44.2z" fill="url(#_Linear10)" fill-rule="nonzero"/><path d="M283.9 50.6c-2.7 0-4.8-.7-6.1-2.2a7.7 7.7 0 0 1-2-5.5c0-2 .5-3.5 1.5-4.8 1-1.2 2.2-2.2 3.6-2.9l5.5-2.2c2.3-.8 4-1.5 5.2-2.2 1-.6 1.6-1.6 1.6-2.7v-5c0-1.8-.4-3.2-1.3-4.2-.8-1-2-1.5-3.8-1.5-2 0-3.6.5-4.7 1.5a6 6 0 0 1 2.8 2c.6.8 1 1.8 1 3 0 1.4-.5 2.6-1.5 3.4-1 .9-2.2 1.3-3.6 1.3-1.5 0-2.6-.5-3.4-1.4-.9-1-1.3-2.1-1.3-3.5 0-1.2.3-2.2.9-3 .6-.9 1.5-1.7 2.7-2.4 1.1-.7 2.5-1.2 4.2-1.6a25 25 0 0 1 11 0c1.5.5 2.8 1.2 3.8 2.2 1 1 1.6 2.1 2 3.5.2 1.4.4 3.2.4 5.6v17.4c0 1 .1 1.7.3 2.2.2.4.6.6 1.1.6.6 0 1.4-.4 2.3-1.1l.7 1c-2 1.7-4.3 2.5-7 2.5-2.4 0-4-.5-5-1.4-1-1-1.4-2.2-1.5-3.8a10.4 10.4 0 0 1-9.4 5.2zm5-4.1c1.6 0 3-1 4.3-2.7v-13c-.5.8-1.6 1.7-3.3 2.7-1.6 1.1-2.9 2.2-3.8 3.2-.8 1.1-1.2 2.6-1.2 4.6 0 1.8.3 3 1 4 .8.7 1.7 1.2 3 1.2z" fill="url(#_Linear11)" fill-rule="nonzero"/><path d="M330.6 16.1c2 0 3.4.6 4.4 1.8 1 1.1 1.4 2.5 1.4 4.1 0 1.6-.4 2.9-1.3 3.9-1 1-2.2 1.5-3.6 1.5a5 5 0 0 1-3.5-1.1 3.8 3.8 0 0 1-1.3-3c0-2 1-3.7 2.8-5h-1.7c-1.7.3-3 1.3-4.2 3a9.4 9.4 0 0 0-1.7 5.3v17c0 1.9.5 3.2 1.5 4 1 .8 2.4 1.2 4.5 1.2V50h-1.4a370.1 370.1 0 0 0-17.9 0v-1.3c1.5 0 2.6-.4 3.2-1 .6-.7.9-1.9.9-3.6V24a8 8 0 0 0-.9-4.3c-.6-.9-1.7-1.3-3.2-1.3V17a42.5 42.5 0 0 0 13.3-.7v6c.8-1.9 2-3.3 3.5-4.5a8.5 8.5 0 0 1 5.2-1.7z" fill="url(#_Linear12)" fill-rule="nonzero"/><path d="M347 50.6c-2.8 0-4.8-.7-6.2-2.2a7.7 7.7 0 0 1-2-5.5c0-2 .5-3.5 1.5-4.8 1-1.2 2.2-2.2 3.7-2.9 1.4-.7 3.2-1.4 5.4-2.2 2.4-.8 4.1-1.5 5.2-2.2 1-.6 1.6-1.6 1.6-2.7v-5c0-1.8-.4-3.2-1.2-4.2-.9-1-2.1-1.5-3.9-1.5-2 0-3.6.5-4.7 1.5a6 6 0 0 1 2.8 2c.7.8 1 1.8 1 3 0 1.4-.5 2.6-1.5 3.4-1 .9-2.1 1.3-3.5 1.3-1.5 0-2.7-.5-3.5-1.4-.8-1-1.2-2.1-1.2-3.5 0-1.2.3-2.2.8-3 .6-.9 1.5-1.7 2.7-2.4 1.2-.7 2.6-1.2 4.3-1.6a25 25 0 0 1 11 0c1.5.5 2.7 1.2 3.8 2.2 1 1 1.5 2.1 1.9 3.5.3 1.4.4 3.2.4 5.6v17.4c0 1 .1 1.7.3 2.2.2.4.6.6 1.1.6.7 0 1.5-.4 2.4-1.1l.6 1c-2 1.7-4.3 2.5-7 2.5-2.4 0-4-.5-5-1.4-1-1-1.4-2.2-1.4-3.8a10.4 10.4 0 0 1-9.5 5.2zm4.9-4.1c1.6 0 3-1 4.3-2.7v-13c-.5.8-1.6 1.7-3.2 2.7-1.7 1.1-3 2.2-3.8 3.2-.9 1.1-1.3 2.6-1.3 4.6 0 1.8.4 3 1 4 .8.7 1.8 1.2 3 1.2z" fill="url(#_Linear13)" fill-rule="nonzero"/><path d="M405.7 48.4c-3.4 0-5-1.4-5-4.4 0-.7 0-1.6.3-2.8a14 14 0 0 1-4 5.6 8.3 8.3 0 0 1-5 1.6c-2.4 0-4.2-.7-5.5-2-1.3-1.5-2-3.5-2-6.3 0-3 .7-6.1 2.2-9.3 1.4-3.3 3.3-6 5.7-8a11 11 0 0 1 7.4-3.3 5 5 0 0 1 3.3 1c.8.8 1.4 1.7 1.7 2.9l.6-3c3.3 0 6-.3 8-.9l-5 23.1-.4 2.4c0 1 .4 1.4 1 1.4l1-.1c1.8-.6 3.8-1.8 6-3.7a24 24 0 0 0 7.4-17.7c0-5.6-1.8-9.7-5.4-12.4-3.5-2.7-8-4-13.6-4-5.3 0-10.2 1.5-14.8 4.5a33.2 33.2 0 0 0-15.3 27.8c0 6.3 1.7 11 5.3 14 3.5 3 8.3 4.5 14.3 4.5 5 0 9.3-1.2 13.1-3.5l.5.8c-1.7 1.2-3.7 2.1-6 2.8-2.4.7-5 1-7.7 1-6.4 0-11.5-1.6-15.2-4.8-3.7-3.2-5.6-8.1-5.6-14.6a34.4 34.4 0 0 1 15.6-28.8c4.8-3.3 10-4.8 15.7-4.8 6 0 11 1.4 14.7 4.3 3.8 3 5.6 7.3 5.6 13.3 0 4.5-1 8.6-2.9 12.2-2 3.5-4.4 6.3-7.3 8.3-3 2-5.8 3-8.7 3zm-10.4-3c1.4 0 2.6-.8 3.7-2.5a25 25 0 0 0 3.2-7l2-10.1a6 6 0 0 0-.7-2.9 2.3 2.3 0 0 0-2-1.1c-1.5 0-2.8.9-4.2 2.7a29 29 0 0 0-4.6 15.6c0 1.9.2 3.2.7 4 .4.9 1 1.3 2 1.3z" fill="url(#_Linear14)" fill-rule="nonzero"/><path d="M458.6 23.2a3 3 0 0 1-2.2-.9c-.6-.6-1-1.4-1-2.5 0-1 .3-2 .9-3.1-1 .4-2 1-2.6 1.4-.6.6-1.2 1.2-1.7 2 1.4 1.6 2 3.7 2 6.2 0 3.4-1.1 6-3.5 7.6a15.3 15.3 0 0 1-9.2 2.6H440c-1.7 1-2.6 2.1-2.6 3.4 0 1.3.9 2 2.6 2h7c3.7 0 6.7.7 9 2.1a7 7 0 0 1 3.3 6.4c0 2.1-.7 4.1-2 5.9a14.1 14.1 0 0 1-6.4 4.2c-2.8 1.1-6.3 1.6-10.4 1.6-4.1 0-7.4-.5-10-1.5-2.4-1-3.7-2.6-3.7-4.5 0-1.4.6-2.5 1.8-3.6 1.2-1 3-1.9 5.3-2.5l.6 1c-1.5 1.4-2.3 2.8-2.3 4.5 0 1.8.8 3.2 2.5 4.1 1.6 1 3.8 1.5 6.7 1.5 3 0 5.4-.6 7.2-1.8a5.7 5.7 0 0 0 2.8-5 4 4 0 0 0-1.5-3.4c-1-.8-3-1.2-5.5-1.2h-4c-2.7 0-4.9-.5-6.4-1.4a4.6 4.6 0 0 1-2.3-4.2c0-1.6.6-3 1.7-4.2 1-1.3 2.8-2.5 5-3.6-3-.4-5.5-1.4-7.3-3a9 9 0 0 1-2.7-7c0-3.4 1.2-5.9 3.5-7.6 2.4-1.7 5.4-2.6 9.3-2.6 4.2 0 7.5 1 9.8 3 .8-1.1 1.8-2 3-2.7 1.2-.7 2.4-1 3.6-1 1.3 0 2.3.3 3 1a4 4 0 0 1 1.2 3c0 1.2-.3 2.1-1 2.8-.7.6-1.4 1-2.3 1zm-17.3 12.1c1.2 0 2-.7 2.7-2 .6-1.4 1-3.7 1-7s-.4-5.6-1-7c-.6-1.3-1.5-2-2.7-2-1.2 0-2.1.7-2.7 2-.7 1.4-1 3.7-1 7s.3 5.6 1 7c.6 1.3 1.5 2 2.7 2z" fill="url(#_Linear15)" fill-rule="nonzero"/><path d="M515 44.2c0 1.7.4 3 1 3.6.6.6 1.7 1 3.2 1V50l-8.5-.2-8 .2v-1.3c1.2 0 2-.4 2.5-1 .4-.6.7-1.8.7-3.6v-20c0-1.7-.3-3-.8-4-.6-.8-1.6-1.3-3-1.3-1.7 0-3 .7-4.2 2a8.6 8.6 0 0 0-2 4.9v18.4c0 1.7.2 3 .7 3.6.5.6 1.5 1 3 1V50l-8.1-.2-8 .2v-1.3c1.2 0 2-.4 2.4-1 .5-.7.7-1.9.7-3.6v-20c0-1.7-.2-3-.7-4-.5-.8-1.4-1.3-2.8-1.3-1.7 0-3.1.8-4.3 2.2a7.9 7.9 0 0 0-1.9 5.3v17.8c0 1.7.3 3 .7 3.6.4.6 1.2 1 2.4 1V50a205.4 205.4 0 0 0-16.4 0v-1.3c1.6 0 2.6-.4 3.2-1 .6-.7 1-1.9 1-3.6V24a8 8 0 0 0-1-4.3c-.6-.9-1.6-1.3-3.2-1.3V17a42.5 42.5 0 0 0 13.3-.7v5.8c2-4 5.2-6 10-6 3.2 0 5.5.9 7 2.5a7 7 0 0 1 1.6 3.9c1.1-2.3 2.5-4 4.3-5a13 13 0 0 1 6.3-1.4c3.3 0 5.6.9 7 2.5a7 7 0 0 1 1.5 3.2c.3 1.3.5 3 .5 5.1v17.3z" fill="url(#_Linear16)" fill-rule="nonzero"/><path d="M530 50.6c-2.7 0-4.8-.7-6.1-2.2a7.7 7.7 0 0 1-2-5.5c0-2 .5-3.5 1.5-4.8 1-1.2 2.2-2.2 3.6-2.9 1.4-.7 3.3-1.4 5.5-2.2 2.3-.8 4-1.5 5.1-2.2 1.1-.6 1.7-1.6 1.7-2.7v-5c0-1.8-.5-3.2-1.3-4.2s-2.1-1.5-3.9-1.5c-2 0-3.6.5-4.6 1.5a6 6 0 0 1 2.8 2c.6.8 1 1.8 1 3 0 1.4-.5 2.6-1.5 3.4-1 .9-2.2 1.3-3.6 1.3-1.5 0-2.7-.5-3.5-1.4-.8-1-1.2-2.1-1.2-3.5 0-1.2.3-2.2.9-3 .6-.9 1.4-1.7 2.6-2.4 1.2-.7 2.6-1.2 4.3-1.6a25 25 0 0 1 11 0c1.5.5 2.8 1.2 3.8 2.2 1 1 1.6 2.1 1.9 3.5.3 1.4.5 3.2.5 5.6v17.4c0 1 0 1.7.3 2.2.2.4.5.6 1 .6.7 0 1.5-.4 2.4-1.1l.6 1c-1.9 1.7-4.2 2.5-7 2.5-2.4 0-4-.5-5-1.4-.9-1-1.4-2.2-1.4-3.8a10.4 10.4 0 0 1-9.4 5.2zm5-4.1c1.6 0 3-1 4.3-2.7v-13c-.5.8-1.6 1.7-3.3 2.7-1.7 1.1-3 2.2-3.8 3.2-.8 1.1-1.3 2.6-1.3 4.6 0 1.8.4 3 1.1 4 .8.7 1.7 1.2 3 1.2z" fill="url(#_Linear17)" fill-rule="nonzero"/><path d="M563 .5c1.8 0 3.2.4 4.3 1.3 1 .9 1.5 2.1 1.5 3.6 0 1.6-.5 2.8-1.5 3.7-1 .8-2.5 1.3-4.3 1.3-1.8 0-3.2-.5-4.2-1.3-1-1-1.6-2.1-1.6-3.7 0-1.5.5-2.7 1.6-3.6 1-.9 2.4-1.3 4.2-1.3zm5 43.7c0 1.7.3 3 1 3.6.5.6 1.6 1 3.1 1V50a266.4 266.4 0 0 0-17.4 0v-1.3c1.5 0 2.6-.4 3.2-1 .6-.7.9-1.9.9-3.6V24a8 8 0 0 0-1-4.3c-.5-.9-1.6-1.3-3.1-1.3V17a42.5 42.5 0 0 0 13.3-.7v27.9z" fill="url(#_Linear18)" fill-rule="nonzero"/><path d="M587.9 44.2c0 1.7.3 3 .9 3.6.6.6 1.7 1 3.2 1V50l-8.6-.2-8.8.2v-1.3c1.5 0 2.5-.4 3.2-1 .6-.7.9-1.9.9-3.6V7.7c0-2-.3-3.4-1-4.3-.6-.9-1.6-1.4-3.1-1.4V.7a42.5 42.5 0 0 0 13.3-.7v44.2z" fill="url(#_Linear19)" fill-rule="nonzero"/><path d="M601.9 41.2c1.6 0 3 .4 4 1.3.9.8 1.4 2 1.4 3.6 0 1.5-.5 2.7-1.5 3.6-1 .9-2.3 1.3-4 1.3-1.6 0-3-.4-4-1.3-.9-.9-1.4-2-1.4-3.6s.5-2.8 1.5-3.6c1-1 2.3-1.3 4-1.3z" fill="url(#_Linear20)" fill-rule="nonzero"/><path d="M628.7 16.1c1.6 0 3 .2 4.5.5 1.4.4 2.5.9 3.5 1.4 1 .7 2 1.6 2.6 2.6.6 1 .9 2.2.9 3.5a4.9 4.9 0 0 1-5 5.1 5 5 0 0 1-3.6-1.3c-1-.8-1.4-2-1.4-3.5a5 5 0 0 1 1.2-3.3c.8-1 1.8-1.6 3-1.9-.3-.5-.8-.8-1.5-1.1-.7-.3-1.5-.4-2.3-.4-2.6 0-4.6 1.4-6 4.2a24.2 24.2 0 0 0-2.1 11c0 4.5.8 7.8 2.4 9.8 1.6 2 3.6 3 6 3 1.5 0 3-.4 4.5-1.2 1.4-.7 2.8-2 4-4l1 .4A16 16 0 0 1 636 48c-2.2 2-5 3-8.3 3-4.4 0-8-1.4-10.7-4.3-2.8-3-4.2-7.3-4.2-13 0-3.7.7-7 2-9.6a14 14 0 0 1 5.7-6c2.4-1.3 5.1-2 8.2-2z" fill="url(#_Linear21)" fill-rule="nonzero"/><path d="M660.3 16.1c4.9 0 8.7 1.4 11.5 4.2 2.8 2.8 4.2 7.2 4.2 13.3 0 6-1.4 10.5-4.2 13.2a15.6 15.6 0 0 1-11.5 4.2c-4.9 0-8.7-1.4-11.5-4.2-2.8-2.7-4.2-7.1-4.2-13.2 0-6 1.4-10.5 4.2-13.3 2.8-2.8 6.6-4.2 11.5-4.2zm0 1.3c-1.8 0-3.3 1.3-4.4 4-1 2.7-1.6 6.7-1.6 12.2 0 5.5.5 9.5 1.6 12.2 1 2.6 2.6 4 4.4 4 1.9 0 3.3-1.4 4.4-4 1-2.6 1.6-6.7 1.6-12.2 0-5.5-.5-9.6-1.6-12.2-1.1-2.7-2.6-4-4.4-4z" fill="url(#_Linear22)" fill-rule="nonzero"/><path d="M731.4 44.2c0 1.7.3 3 1 3.6.5.6 1.6 1 3 1V50L727 50l-7.9.2v-1.3c1.2 0 2-.4 2.4-1 .5-.6.7-1.8.7-3.6v-20c0-1.7-.3-3-.8-4-.6-.8-1.6-1.3-3-1.3-1.6 0-3 .7-4.2 2a8.6 8.6 0 0 0-2 4.9v18.4c0 1.7.2 3 .7 3.6.6.6 1.5 1 3 1V50l-8.1-.2-8 .2v-1.3c1.2 0 2-.4 2.4-1 .5-.7.7-1.9.7-3.6v-20c0-1.7-.2-3-.7-4-.5-.8-1.4-1.3-2.7-1.3-1.8 0-3.2.8-4.4 2.2a7.9 7.9 0 0 0-1.9 5.3v17.8c0 1.7.3 3 .7 3.6.5.6 1.3 1 2.4 1V50a205.4 205.4 0 0 0-16.4 0v-1.3c1.6 0 2.6-.4 3.2-1 .6-.7 1-1.9 1-3.6V24a8 8 0 0 0-1-4.3c-.6-.9-1.6-1.3-3.2-1.3V17a42.5 42.5 0 0 0 13.3-.7v5.8c2-4 5.2-6 10-6 3.2 0 5.6.9 7 2.5a7 7 0 0 1 1.6 3.9c1.1-2.3 2.6-4 4.4-5a13 13 0 0 1 6.2-1.4c3.3 0 5.6.9 7 2.5a7 7 0 0 1 1.5 3.2c.3 1.3.5 3 .5 5.1v17.3z" fill="url(#_Linear23)" fill-rule="nonzero"/><defs><linearGradient id="_Linear1" x2="1" gradientUnits="userSpaceOnUse" gradientTransform="matrix(737.536 0 0 85.312 -1.2 23.5)"><stop offset="0" stop-color="#1565c0"/><stop offset="1" stop-color="#52b2d2"/></linearGradient><linearGradient id="_Linear2" x2="1" gradientUnits="userSpaceOnUse" gradientTransform="matrix(737.536 0 0 85.312 -1.2 23.5)"><stop offset="0" stop-color="#1565c0"/><stop offset="1" stop-color="#52b2d2"/></linearGradient><linearGradient id="_Linear3" x2="1" gradientUnits="userSpaceOnUse" gradientTransform="matrix(737.536 0 0 85.312 -1.2 23.5)"><stop offset="0" stop-color="#1565c0"/><stop offset="1" stop-color="#52b2d2"/></linearGradient><linearGradient id="_Linear4" x2="1" gradientUnits="userSpaceOnUse" gradientTransform="matrix(737.536 0 0 85.312 -1.2 23.5)"><stop offset="0" stop-color="#1565c0"/><stop offset="1" stop-color="#52b2d2"/></linearGradient><linearGradient id="_Linear5" x2="1" gradientUnits="userSpaceOnUse" gradientTransform="matrix(737.536 0 0 85.312 -1.2 23.5)"><stop offset="0" stop-color="#1565c0"/><stop offset="1" stop-color="#52b2d2"/></linearGradient><linearGradient id="_Linear6" x2="1" gradientUnits="userSpaceOnUse" gradientTransform="matrix(737.536 0 0 85.312 -1.2 23.5)"><stop offset="0" stop-color="#1565c0"/><stop offset="1" stop-color="#52b2d2"/></linearGradient><linearGradient id="_Linear7" x2="1" gradientUnits="userSpaceOnUse" gradientTransform="matrix(737.536 0 0 85.312 -1.2 23.5)"><stop offset="0" stop-color="#1565c0"/><stop offset="1" stop-color="#52b2d2"/></linearGradient><linearGradient id="_Linear8" x2="1" gradientUnits="userSpaceOnUse" gradientTransform="matrix(737.536 0 0 85.312 -1.2 23.5)"><stop offset="0" stop-color="#1565c0"/><stop offset="1" stop-color="#52b2d2"/></linearGradient><linearGradient id="_Linear9" x2="1" gradientUnits="userSpaceOnUse" gradientTransform="matrix(737.536 0 0 85.312 -1.2 23.5)"><stop offset="0" stop-color="#1565c0"/><stop offset="1" stop-color="#52b2d2"/></linearGradient><linearGradient id="_Linear10" x2="1" gradientUnits="userSpaceOnUse" gradientTransform="matrix(737.536 0 0 85.312 -1.2 23.5)"><stop offset="0" stop-color="#1565c0"/><stop offset="1" stop-color="#52b2d2"/></linearGradient><linearGradient id="_Linear11" x2="1" gradientUnits="userSpaceOnUse" gradientTransform="matrix(737.536 0 0 85.312 -1.2 23.5)"><stop offset="0" stop-color="#1565c0"/><stop offset="1" stop-color="#52b2d2"/></linearGradient><linearGradient id="_Linear12" x2="1" gradientUnits="userSpaceOnUse" gradientTransform="matrix(737.536 0 0 85.312 -1.2 23.5)"><stop offset="0" stop-color="#1565c0"/><stop offset="1" stop-color="#52b2d2"/></linearGradient><linearGradient id="_Linear13" x2="1" gradientUnits="userSpaceOnUse" gradientTransform="matrix(737.536 0 0 85.312 -1.2 23.5)"><stop offset="0" stop-color="#1565c0"/><stop offset="1" stop-color="#52b2d2"/></linearGradient><linearGradient id="_Linear14" x2="1" gradientUnits="userSpaceOnUse" gradientTransform="matrix(737.536 0 0 85.312 -1.2 23.5)"><stop offset="0" stop-color="#1565c0"/><stop offset="1" stop-color="#52b2d2"/></linearGradient><linearGradient id="_Linear15" x2="1" gradientUnits="userSpaceOnUse" gradientTransform="matrix(737.536 0 0 85.312 -1.2 23.5)"><stop offset="0" stop-color="#1565c0"/><stop offset="1" stop-color="#52b2d2"/></linearGradient><linearGradient id="_Linear16" x2="1" gradientUnits="userSpaceOnUse" gradientTransform="matrix(737.536 0 0 85.312 -1.2 23.5)"><stop offset="0" stop-color="#1565c0"/><stop offset="1" stop-color="#52b2d2"/></linearGradient><linearGradient id="_Linear17" x2="1" gradientUnits="userSpaceOnUse" gradientTransform="matrix(737.536 0 0 85.312 -1.2 23.5)"><stop offset="0" stop-color="#1565c0"/><stop offset="1" stop-color="#52b2d2"/></linearGradient><linearGradient id="_Linear18" x2="1" gradientUnits="userSpaceOnUse" gradientTransform="matrix(737.536 0 0 85.312 -1.2 23.5)"><stop offset="0" stop-color="#1565c0"/><stop offset="1" stop-color="#52b2d2"/></linearGradient><linearGradient id="_Linear19" x2="1" gradientUnits="userSpaceOnUse" gradientTransform="matrix(737.536 0 0 85.312 -1.2 23.5)"><stop offset="0" stop-color="#1565c0"/><stop offset="1" stop-color="#52b2d2"/></linearGradient><linearGradient id="_Linear20" x2="1" gradientUnits="userSpaceOnUse" gradientTransform="matrix(737.536 0 0 85.312 -1.2 23.5)"><stop offset="0" stop-color="#1565c0"/><stop offset="1" stop-color="#52b2d2"/></linearGradient><linearGradient id="_Linear21" x2="1" gradientUnits="userSpaceOnUse" gradientTransform="matrix(737.536 0 0 85.312 -1.2 23.5)"><stop offset="0" stop-color="#1565c0"/><stop offset="1" stop-color="#52b2d2"/></linearGradient><linearGradient id="_Linear22" x2="1" gradientUnits="userSpaceOnUse" gradientTransform="matrix(737.536 0 0 85.312 -1.2 23.5)"><stop offset="0" stop-color="#1565c0"/><stop offset="1" stop-color="#52b2d2"/></linearGradient><linearGradient id="_Linear23" x2="1" gradientUnits="userSpaceOnUse" gradientTransform="matrix(737.536 0 0 85.312 -1.2 23.5)"><stop offset="0" stop-color="#1565c0"/><stop offset="1" stop-color="#52b2d2"/></linearGradient></defs></svg>