<?xml version="1.0" encoding="UTF-8" standalone="no"?><!DOCTYPE svg PUBLIC "-//W3C//DTD SVG 1.1//EN" "http://www.w3.org/Graphics/SVG/1.1/DTD/svg11.dtd"><svg width="100%" height="100%" viewBox="0 0 736 63" version="1.1" xmlns="http://www.w3.org/2000/svg" xmlns:xlink="http://www.w3.org/1999/xlink" xml:space="preserve" xmlns:serif="http://www.serif.com/" style="cursor:pointer;fill-rule:evenodd;clip-rule:evenodd;stroke-linejoin:round;stroke-miterlimit:1.41421;"><path d="M13.312,22.08c1.92,-3.968 5.397,-5.952 10.432,-5.952c3.328,0 5.675,0.832 7.04,2.496c0.725,0.811 1.248,1.867 1.568,3.168c0.32,1.301 0.48,3.019 0.48,5.152l0,17.216c0,1.749 0.299,2.955 0.896,3.616c0.597,0.661 1.664,0.992 3.2,0.992l0,1.344c-4.437,-0.171 -7.253,-0.256 -8.448,-0.256c-1.451,0 -4.224,0.085 -8.32,0.256l0,-1.344c1.28,0 2.176,-0.331 2.688,-0.992c0.512,-0.661 0.768,-1.867 0.768,-3.616l0,-19.904c0,-1.749 -0.288,-3.072 -0.864,-3.968c-0.576,-0.896 -1.611,-1.344 -3.104,-1.344c-1.792,0 -3.296,0.693 -4.512,2.08c-1.216,1.387 -1.824,3.147 -1.824,5.28l0,17.856c0,1.749 0.256,2.955 0.768,3.616c0.512,0.661 1.408,0.992 2.688,0.992l0,1.344c-4.096,-0.171 -6.741,-0.256 -7.936,-0.256c-1.451,0 -4.395,0.085 -8.832,0.256l0,-1.344c1.493,0 2.549,-0.331 3.168,-0.992c0.619,-0.661 0.928,-1.867 0.928,-3.616l0,-36.416c0,-1.963 -0.309,-3.392 -0.928,-4.288c-0.619,-0.896 -1.675,-1.344 -3.168,-1.344l0,-1.344c1.365,0.128 2.688,0.192 3.968,0.192c3.712,0 6.827,-0.299 9.344,-0.896l0,22.016Z" style="fill:url(#_Linear1);fill-rule:nonzero;"/><path d="M58.048,45.76c3.499,0 6.315,-1.707 8.448,-5.12l1.152,0.384c-0.853,2.773 -2.379,5.131 -4.576,7.072c-2.197,1.941 -4.939,2.912 -8.224,2.912c-4.523,0 -8.117,-1.44 -10.784,-4.32c-2.667,-2.88 -4,-7.136 -4,-12.768c0,-5.76 1.429,-10.165 4.288,-13.216c2.859,-3.051 6.656,-4.576 11.392,-4.576c8.021,0 12.032,4.736 12.032,14.208l-17.984,0c-0.043,0.64 -0.064,1.643 -0.064,3.008c0,2.816 0.395,5.163 1.184,7.04c0.789,1.877 1.813,3.243 3.072,4.096c1.259,0.853 2.613,1.28 4.064,1.28Zm-2.688,-28.288c-1.536,0 -2.805,0.949 -3.808,2.848c-1.003,1.899 -1.632,4.832 -1.888,8.8l10.048,0c0.085,-3.371 -0.245,-6.155 -0.992,-8.352c-0.747,-2.197 -1.867,-3.296 -3.36,-3.296Z" style="fill:url(#_Linear2);fill-rule:nonzero;"/><path d="M84.544,44.16c0,1.749 0.299,2.955 0.896,3.616c0.597,0.661 1.664,0.992 3.2,0.992l0,1.344c-4.437,-0.171 -7.296,-0.256 -8.576,-0.256c-1.451,0 -4.395,0.085 -8.832,0.256l0,-1.344c1.493,0 2.549,-0.331 3.168,-0.992c0.619,-0.661 0.928,-1.867 0.928,-3.616l0,-36.48c0,-1.963 -0.309,-3.392 -0.928,-4.288c-0.619,-0.896 -1.675,-1.344 -3.168,-1.344l0,-1.344c1.365,0.128 2.688,0.192 3.968,0.192c3.712,0 6.827,-0.299 9.344,-0.896l0,44.16Z" style="fill:url(#_Linear3);fill-rule:nonzero;"/><path d="M104.832,44.16c0,1.749 0.299,2.955 0.896,3.616c0.597,0.661 1.664,0.992 3.2,0.992l0,1.344c-4.437,-0.171 -7.296,-0.256 -8.576,-0.256c-1.451,0 -4.395,0.085 -8.832,0.256l0,-1.344c1.493,0 2.549,-0.331 3.168,-0.992c0.619,-0.661 0.928,-1.867 0.928,-3.616l0,-36.48c0,-1.963 -0.309,-3.392 -0.928,-4.288c-0.619,-0.896 -1.675,-1.344 -3.168,-1.344l0,-1.344c1.365,0.128 2.688,0.192 3.968,0.192c3.712,0 6.827,-0.299 9.344,-0.896l0,44.16Z" style="fill:url(#_Linear4);fill-rule:nonzero;"/><path d="M127.552,16.128c4.907,0 8.747,1.397 11.52,4.192c2.773,2.795 4.16,7.221 4.16,13.28c0,6.059 -1.387,10.475 -4.16,13.248c-2.773,2.773 -6.613,4.16 -11.52,4.16c-4.864,0 -8.693,-1.387 -11.488,-4.16c-2.795,-2.773 -4.192,-7.189 -4.192,-13.248c0,-6.059 1.397,-10.485 4.192,-13.28c2.795,-2.795 6.624,-4.192 11.488,-4.192Zm0,1.28c-1.835,0 -3.296,1.333 -4.384,4c-1.088,2.667 -1.632,6.731 -1.632,12.192c0,5.461 0.544,9.515 1.632,12.16c1.088,2.645 2.549,3.968 4.384,3.968c1.877,0 3.349,-1.312 4.416,-3.936c1.067,-2.624 1.6,-6.688 1.6,-12.192c0,-5.504 -0.544,-9.579 -1.632,-12.224c-1.088,-2.645 -2.549,-3.968 -4.384,-3.968Z" style="fill:url(#_Linear5);fill-rule:nonzero;"/><path d="M154.304,41.152c1.664,0 2.987,0.437 3.968,1.312c0.981,0.875 1.472,2.08 1.472,3.616c0,1.536 -0.491,2.741 -1.472,3.616c-0.981,0.875 -2.304,1.312 -3.968,1.312c-1.664,0 -2.987,-0.437 -3.968,-1.312c-0.981,-0.875 -1.472,-2.08 -1.472,-3.616c0,-1.536 0.491,-2.741 1.472,-3.616c0.981,-0.875 2.304,-1.312 3.968,-1.312Z" style="fill:url(#_Linear6);fill-rule:nonzero;"/><path d="M194.816,23.168c-0.853,0 -1.579,-0.288 -2.176,-0.864c-0.597,-0.576 -0.896,-1.397 -0.896,-2.464c0,-1.024 0.256,-2.069 0.768,-3.136c-1.024,0.427 -1.867,0.907 -2.528,1.44c-0.661,0.533 -1.227,1.205 -1.696,2.016c1.323,1.579 1.984,3.627 1.984,6.144c0,3.371 -1.163,5.909 -3.488,7.616c-2.325,1.707 -5.408,2.56 -9.248,2.56l-1.152,0c-1.749,1.024 -2.624,2.155 -2.624,3.392c0,1.365 0.853,2.048 2.56,2.048l6.976,0c3.755,0 6.752,0.693 8.992,2.08c2.24,1.387 3.36,3.509 3.36,6.368c0,2.176 -0.693,4.149 -2.08,5.92c-1.387,1.771 -3.488,3.189 -6.304,4.256c-2.816,1.067 -6.272,1.6 -10.368,1.6c-4.139,0 -7.456,-0.523 -9.952,-1.568c-2.496,-1.045 -3.744,-2.549 -3.744,-4.512c0,-1.323 0.597,-2.507 1.792,-3.552c1.195,-1.045 2.965,-1.867 5.312,-2.464l0.576,1.024c-1.536,1.28 -2.304,2.752 -2.304,4.416c0,1.792 0.811,3.168 2.432,4.128c1.621,0.96 3.861,1.44 6.72,1.44c2.987,0 5.408,-0.597 7.264,-1.792c1.856,-1.195 2.784,-2.88 2.784,-5.056c0,-1.408 -0.523,-2.517 -1.568,-3.328c-1.045,-0.811 -2.869,-1.216 -5.472,-1.216l-3.968,0c-2.731,0 -4.864,-0.459 -6.4,-1.376c-1.536,-0.917 -2.304,-2.315 -2.304,-4.192c0,-1.579 0.555,-2.987 1.664,-4.224c1.109,-1.237 2.795,-2.432 5.056,-3.584c-3.072,-0.384 -5.504,-1.408 -7.296,-3.072c-1.792,-1.664 -2.688,-3.968 -2.688,-6.912c0,-3.371 1.163,-5.909 3.488,-7.616c2.325,-1.707 5.408,-2.56 9.248,-2.56c4.267,0 7.531,1.003 9.792,3.008c0.811,-1.152 1.813,-2.069 3.008,-2.752c1.195,-0.683 2.411,-1.024 3.648,-1.024c1.28,0 2.293,0.373 3.04,1.12c0.747,0.747 1.12,1.717 1.12,2.912c0,1.195 -0.331,2.123 -0.992,2.784c-0.661,0.661 -1.44,0.992 -2.336,0.992Zm-17.28,12.16c1.195,0 2.101,-0.683 2.72,-2.048c0.619,-1.365 0.928,-3.691 0.928,-6.976c0,-3.285 -0.309,-5.611 -0.928,-6.976c-0.619,-1.365 -1.525,-2.048 -2.72,-2.048c-1.195,0 -2.101,0.683 -2.72,2.048c-0.619,1.365 -0.928,3.691 -0.928,6.976c0,3.285 0.309,5.611 0.928,6.976c0.619,1.365 1.525,2.048 2.72,2.048Z" style="fill:url(#_Linear7);fill-rule:nonzero;"/><path d="M208.192,0.512c1.792,0 3.211,0.437 4.256,1.312c1.045,0.875 1.568,2.08 1.568,3.616c0,1.536 -0.523,2.741 -1.568,3.616c-1.045,0.875 -2.464,1.312 -4.256,1.312c-1.792,0 -3.211,-0.437 -4.256,-1.312c-1.045,-0.875 -1.568,-2.08 -1.568,-3.616c0,-1.536 0.523,-2.741 1.568,-3.616c1.045,-0.875 2.464,-1.312 4.256,-1.312Zm4.992,43.648c0,1.749 0.309,2.955 0.928,3.616c0.619,0.661 1.675,0.992 3.168,0.992l0,1.344c-4.267,-0.171 -7.104,-0.256 -8.512,-0.256c-1.323,0 -4.288,0.085 -8.896,0.256l0,-1.344c1.536,0 2.603,-0.331 3.2,-0.992c0.597,-0.661 0.896,-1.867 0.896,-3.616l0,-20.16c0,-1.963 -0.299,-3.392 -0.896,-4.288c-0.597,-0.896 -1.664,-1.344 -3.2,-1.344l0,-1.344c1.365,0.128 2.688,0.192 3.968,0.192c3.797,0 6.912,-0.299 9.344,-0.896l0,27.84Z" style="fill:url(#_Linear8);fill-rule:nonzero;"/><path d="M236.544,16.128c4.907,0 8.747,1.397 11.52,4.192c2.773,2.795 4.16,7.221 4.16,13.28c0,6.059 -1.387,10.475 -4.16,13.248c-2.773,2.773 -6.613,4.16 -11.52,4.16c-4.864,0 -8.693,-1.387 -11.488,-4.16c-2.795,-2.773 -4.192,-7.189 -4.192,-13.248c0,-6.059 1.397,-10.485 4.192,-13.28c2.795,-2.795 6.624,-4.192 11.488,-4.192Zm0,1.28c-1.835,0 -3.296,1.333 -4.384,4c-1.088,2.667 -1.632,6.731 -1.632,12.192c0,5.461 0.544,9.515 1.632,12.16c1.088,2.645 2.549,3.968 4.384,3.968c1.877,0 3.349,-1.312 4.416,-3.936c1.067,-2.624 1.6,-6.688 1.6,-12.192c0,-5.504 -0.544,-9.579 -1.632,-12.224c-1.088,-2.645 -2.549,-3.968 -4.384,-3.968Z" style="fill:url(#_Linear9);fill-rule:nonzero;"/><path d="M268.608,44.16c0,1.749 0.299,2.955 0.896,3.616c0.597,0.661 1.664,0.992 3.2,0.992l0,1.344c-4.437,-0.171 -7.296,-0.256 -8.576,-0.256c-1.451,0 -4.395,0.085 -8.832,0.256l0,-1.344c1.493,0 2.549,-0.331 3.168,-0.992c0.619,-0.661 0.928,-1.867 0.928,-3.616l0,-36.48c0,-1.963 -0.309,-3.392 -0.928,-4.288c-0.619,-0.896 -1.675,-1.344 -3.168,-1.344l0,-1.344c1.365,0.128 2.688,0.192 3.968,0.192c3.712,0 6.827,-0.299 9.344,-0.896l0,44.16Z" style="fill:url(#_Linear10);fill-rule:nonzero;"/><path d="M283.904,50.56c-2.731,0 -4.768,-0.704 -6.112,-2.112c-1.344,-1.408 -2.016,-3.264 -2.016,-5.568c0,-1.92 0.501,-3.509 1.504,-4.768c1.003,-1.259 2.219,-2.229 3.648,-2.912c1.429,-0.683 3.253,-1.408 5.472,-2.176c2.347,-0.811 4.064,-1.547 5.152,-2.208c1.088,-0.661 1.632,-1.568 1.632,-2.72l0,-4.992c0,-1.792 -0.416,-3.189 -1.248,-4.192c-0.832,-1.003 -2.123,-1.504 -3.872,-1.504c-2.048,0 -3.605,0.512 -4.672,1.536c1.195,0.427 2.123,1.067 2.784,1.92c0.661,0.853 0.992,1.856 0.992,3.008c0,1.451 -0.491,2.603 -1.472,3.456c-0.981,0.853 -2.176,1.28 -3.584,1.28c-1.493,0 -2.645,-0.469 -3.456,-1.408c-0.811,-0.939 -1.216,-2.112 -1.216,-3.52c0,-1.195 0.288,-2.208 0.864,-3.04c0.576,-0.832 1.461,-1.611 2.656,-2.336c1.152,-0.683 2.571,-1.216 4.256,-1.6c1.685,-0.384 3.531,-0.576 5.536,-0.576c2.091,0 3.904,0.213 5.44,0.64c1.536,0.427 2.816,1.152 3.84,2.176c0.939,0.939 1.568,2.091 1.888,3.456c0.32,1.365 0.48,3.221 0.48,5.568l0,17.408c0,1.024 0.096,1.749 0.288,2.176c0.192,0.427 0.565,0.64 1.12,0.64c0.64,0 1.408,-0.363 2.304,-1.088l0.64,1.088c-1.92,1.579 -4.267,2.368 -7.04,2.368c-2.347,0 -3.989,-0.469 -4.928,-1.408c-0.939,-0.939 -1.429,-2.197 -1.472,-3.776c-2.133,3.456 -5.269,5.184 -9.408,5.184Zm4.928,-4.096c1.664,0 3.115,-0.875 4.352,-2.624l0,-13.12c-0.512,0.853 -1.6,1.792 -3.264,2.816c-1.664,1.067 -2.923,2.133 -3.776,3.2c-0.853,1.067 -1.28,2.603 -1.28,4.608c0,1.749 0.363,3.04 1.088,3.872c0.725,0.832 1.685,1.248 2.88,1.248Z" style="fill:url(#_Linear11);fill-rule:nonzero;"/><path d="M330.624,16.128c1.92,0 3.371,0.576 4.352,1.728c0.981,1.152 1.472,2.539 1.472,4.16c0,1.579 -0.459,2.869 -1.376,3.872c-0.917,1.003 -2.123,1.504 -3.616,1.504c-1.451,0 -2.603,-0.373 -3.456,-1.12c-0.853,-0.747 -1.28,-1.739 -1.28,-2.976c0,-2.048 0.939,-3.712 2.816,-4.992c-0.171,-0.043 -0.427,-0.064 -0.768,-0.064c-0.427,0 -0.768,0.043 -1.024,0.128c-1.621,0.256 -2.997,1.237 -4.128,2.944c-1.131,1.707 -1.696,3.456 -1.696,5.248l0,16.96c0,1.963 0.48,3.328 1.44,4.096c0.96,0.768 2.485,1.152 4.576,1.152l0,1.344c-0.597,0 -1.088,-0.021 -1.472,-0.064c-4.352,-0.128 -7.253,-0.192 -8.704,-0.192c-1.152,0 -3.776,0.064 -7.872,0.192c-0.341,0.043 -0.768,0.064 -1.28,0.064l0,-1.344c1.536,0 2.603,-0.331 3.2,-0.992c0.597,-0.661 0.896,-1.867 0.896,-3.616l0,-20.16c0,-1.963 -0.299,-3.392 -0.896,-4.288c-0.597,-0.896 -1.664,-1.344 -3.2,-1.344l0,-1.344c1.365,0.128 2.688,0.192 3.968,0.192c3.797,0 6.912,-0.299 9.344,-0.896l0,5.952c0.811,-1.835 1.984,-3.317 3.52,-4.448c1.536,-1.131 3.264,-1.696 5.184,-1.696Z" style="fill:url(#_Linear12);fill-rule:nonzero;"/><path d="M346.944,50.56c-2.731,0 -4.768,-0.704 -6.112,-2.112c-1.344,-1.408 -2.016,-3.264 -2.016,-5.568c0,-1.92 0.501,-3.509 1.504,-4.768c1.003,-1.259 2.219,-2.229 3.648,-2.912c1.429,-0.683 3.253,-1.408 5.472,-2.176c2.347,-0.811 4.064,-1.547 5.152,-2.208c1.088,-0.661 1.632,-1.568 1.632,-2.72l0,-4.992c0,-1.792 -0.416,-3.189 -1.248,-4.192c-0.832,-1.003 -2.123,-1.504 -3.872,-1.504c-2.048,0 -3.605,0.512 -4.672,1.536c1.195,0.427 2.123,1.067 2.784,1.92c0.661,0.853 0.992,1.856 0.992,3.008c0,1.451 -0.491,2.603 -1.472,3.456c-0.981,0.853 -2.176,1.28 -3.584,1.28c-1.493,0 -2.645,-0.469 -3.456,-1.408c-0.811,-0.939 -1.216,-2.112 -1.216,-3.52c0,-1.195 0.288,-2.208 0.864,-3.04c0.576,-0.832 1.461,-1.611 2.656,-2.336c1.152,-0.683 2.571,-1.216 4.256,-1.6c1.685,-0.384 3.531,-0.576 5.536,-0.576c2.091,0 3.904,0.213 5.44,0.64c1.536,0.427 2.816,1.152 3.84,2.176c0.939,0.939 1.568,2.091 1.888,3.456c0.32,1.365 0.48,3.221 0.48,5.568l0,17.408c0,1.024 0.096,1.749 0.288,2.176c0.192,0.427 0.565,0.64 1.12,0.64c0.64,0 1.408,-0.363 2.304,-1.088l0.64,1.088c-1.92,1.579 -4.267,2.368 -7.04,2.368c-2.347,0 -3.989,-0.469 -4.928,-1.408c-0.939,-0.939 -1.429,-2.197 -1.472,-3.776c-2.133,3.456 -5.269,5.184 -9.408,5.184Zm4.928,-4.096c1.664,0 3.115,-0.875 4.352,-2.624l0,-13.12c-0.512,0.853 -1.6,1.792 -3.264,2.816c-1.664,1.067 -2.923,2.133 -3.776,3.2c-0.853,1.067 -1.28,2.603 -1.28,4.608c0,1.749 0.363,3.04 1.088,3.872c0.725,0.832 1.685,1.248 2.88,1.248Z" style="fill:url(#_Linear13);fill-rule:nonzero;"/><path d="M405.696,48.448c-3.371,0 -5.056,-1.472 -5.056,-4.416c0,-0.683 0.128,-1.621 0.384,-2.816c-1.152,2.56 -2.475,4.405 -3.968,5.536c-1.493,1.131 -3.2,1.696 -5.12,1.696c-2.304,0 -4.117,-0.704 -5.44,-2.112c-1.323,-1.408 -1.984,-3.477 -1.984,-6.208c0,-3.029 0.725,-6.155 2.176,-9.376c1.451,-3.221 3.36,-5.899 5.728,-8.032c2.368,-2.133 4.832,-3.2 7.392,-3.2c1.323,0 2.411,0.352 3.264,1.056c0.853,0.704 1.429,1.632 1.728,2.784l0.576,-2.944c3.371,0 6.059,-0.299 8.064,-0.896l-5.056,23.104c-0.256,1.195 -0.384,1.984 -0.384,2.368c0,0.939 0.363,1.408 1.088,1.408c0.341,0 0.619,-0.043 0.832,-0.128c1.92,-0.555 3.925,-1.771 6.016,-3.648c2.091,-1.877 3.851,-4.341 5.28,-7.392c1.429,-3.051 2.144,-6.496 2.144,-10.336c0,-5.589 -1.771,-9.717 -5.312,-12.384c-3.541,-2.667 -8.107,-4 -13.696,-4c-5.205,0 -10.123,1.483 -14.752,4.448c-4.629,2.965 -8.341,6.933 -11.136,11.904c-2.795,4.971 -4.192,10.293 -4.192,15.968c0,6.272 1.771,10.912 5.312,13.92c3.541,3.008 8.299,4.512 14.272,4.512c4.949,0 9.344,-1.152 13.184,-3.456l0.448,0.832c-1.664,1.152 -3.669,2.069 -6.016,2.752c-2.347,0.683 -4.907,1.024 -7.68,1.024c-6.4,0 -11.467,-1.611 -15.2,-4.832c-3.733,-3.221 -5.6,-8.096 -5.6,-14.624c0,-5.717 1.397,-11.157 4.192,-16.32c2.795,-5.163 6.592,-9.333 11.392,-12.512c4.8,-3.179 10.037,-4.768 15.712,-4.768c6.059,0 10.965,1.451 14.72,4.352c3.755,2.901 5.632,7.317 5.632,13.248c0,4.565 -0.971,8.629 -2.912,12.192c-1.941,3.563 -4.384,6.336 -7.328,8.32c-2.944,1.984 -5.845,2.976 -8.704,2.976Zm-10.368,-3.072c1.323,0 2.56,-0.811 3.712,-2.432c1.152,-1.621 2.197,-3.968 3.136,-7.04l2.112,-10.112c-0.043,-1.109 -0.299,-2.059 -0.768,-2.848c-0.469,-0.789 -1.173,-1.184 -2.112,-1.184c-1.365,0 -2.72,0.907 -4.064,2.72c-1.344,1.813 -2.453,4.139 -3.328,6.976c-0.875,2.837 -1.312,5.707 -1.312,8.608c0,1.92 0.224,3.285 0.672,4.096c0.448,0.811 1.099,1.216 1.952,1.216Z" style="fill:url(#_Linear14);fill-rule:nonzero;"/><path d="M458.56,23.168c-0.853,0 -1.579,-0.288 -2.176,-0.864c-0.597,-0.576 -0.896,-1.397 -0.896,-2.464c0,-1.024 0.256,-2.069 0.768,-3.136c-1.024,0.427 -1.867,0.907 -2.528,1.44c-0.661,0.533 -1.227,1.205 -1.696,2.016c1.323,1.579 1.984,3.627 1.984,6.144c0,3.371 -1.163,5.909 -3.488,7.616c-2.325,1.707 -5.408,2.56 -9.248,2.56l-1.152,0c-1.749,1.024 -2.624,2.155 -2.624,3.392c0,1.365 0.853,2.048 2.56,2.048l6.976,0c3.755,0 6.752,0.693 8.992,2.08c2.24,1.387 3.36,3.509 3.36,6.368c0,2.176 -0.693,4.149 -2.08,5.92c-1.387,1.771 -3.488,3.189 -6.304,4.256c-2.816,1.067 -6.272,1.6 -10.368,1.6c-4.139,0 -7.456,-0.523 -9.952,-1.568c-2.496,-1.045 -3.744,-2.549 -3.744,-4.512c0,-1.323 0.597,-2.507 1.792,-3.552c1.195,-1.045 2.965,-1.867 5.312,-2.464l0.576,1.024c-1.536,1.28 -2.304,2.752 -2.304,4.416c0,1.792 0.811,3.168 2.432,4.128c1.621,0.96 3.861,1.44 6.72,1.44c2.987,0 5.408,-0.597 7.264,-1.792c1.856,-1.195 2.784,-2.88 2.784,-5.056c0,-1.408 -0.523,-2.517 -1.568,-3.328c-1.045,-0.811 -2.869,-1.216 -5.472,-1.216l-3.968,0c-2.731,0 -4.864,-0.459 -6.4,-1.376c-1.536,-0.917 -2.304,-2.315 -2.304,-4.192c0,-1.579 0.555,-2.987 1.664,-4.224c1.109,-1.237 2.795,-2.432 5.056,-3.584c-3.072,-0.384 -5.504,-1.408 -7.296,-3.072c-1.792,-1.664 -2.688,-3.968 -2.688,-6.912c0,-3.371 1.163,-5.909 3.488,-7.616c2.325,-1.707 5.408,-2.56 9.248,-2.56c4.267,0 7.531,1.003 9.792,3.008c0.811,-1.152 1.813,-2.069 3.008,-2.752c1.195,-0.683 2.411,-1.024 3.648,-1.024c1.28,0 2.293,0.373 3.04,1.12c0.747,0.747 1.12,1.717 1.12,2.912c0,1.195 -0.331,2.123 -0.992,2.784c-0.661,0.661 -1.44,0.992 -2.336,0.992Zm-17.28,12.16c1.195,0 2.101,-0.683 2.72,-2.048c0.619,-1.365 0.928,-3.691 0.928,-6.976c0,-3.285 -0.309,-5.611 -0.928,-6.976c-0.619,-1.365 -1.525,-2.048 -2.72,-2.048c-1.195,0 -2.101,0.683 -2.72,2.048c-0.619,1.365 -0.928,3.691 -0.928,6.976c0,3.285 0.309,5.611 0.928,6.976c0.619,1.365 1.525,2.048 2.72,2.048Z" style="fill:url(#_Linear15);fill-rule:nonzero;"/><path d="M515.072,44.16c0,1.749 0.309,2.955 0.928,3.616c0.619,0.661 1.675,0.992 3.168,0.992l0,1.344c-4.267,-0.171 -7.083,-0.256 -8.448,-0.256c-1.195,0 -3.84,0.085 -7.936,0.256l0,-1.344c1.152,0 1.952,-0.32 2.4,-0.96c0.448,-0.64 0.672,-1.856 0.672,-3.648l0,-19.904c0,-1.792 -0.267,-3.125 -0.8,-4c-0.533,-0.875 -1.547,-1.312 -3.04,-1.312c-1.579,0 -2.955,0.661 -4.128,1.984c-1.173,1.323 -1.867,2.944 -2.08,4.864l0,18.368c0,1.749 0.267,2.955 0.8,3.616c0.533,0.661 1.504,0.992 2.912,0.992l0,1.344c-4.096,-0.171 -6.784,-0.256 -8.064,-0.256c-1.195,0 -3.84,0.085 -7.936,0.256l0,-1.344c1.152,0 1.952,-0.331 2.4,-0.992c0.448,-0.661 0.672,-1.867 0.672,-3.616l0,-19.904c0,-1.792 -0.235,-3.125 -0.704,-4c-0.469,-0.875 -1.387,-1.312 -2.752,-1.312c-1.707,0 -3.168,0.715 -4.384,2.144c-1.216,1.429 -1.824,3.189 -1.824,5.28l0,17.792c0,1.749 0.224,2.955 0.672,3.616c0.448,0.661 1.248,0.992 2.4,0.992l0,1.344c-3.755,-0.171 -6.272,-0.256 -7.552,-0.256c-1.28,0 -4.224,0.085 -8.832,0.256l0,-1.344c1.536,0 2.603,-0.331 3.2,-0.992c0.597,-0.661 0.896,-1.867 0.896,-3.616l0,-20.16c0,-1.963 -0.299,-3.392 -0.896,-4.288c-0.597,-0.896 -1.664,-1.344 -3.2,-1.344l0,-1.344c1.365,0.128 2.688,0.192 3.968,0.192c3.797,0 6.912,-0.299 9.344,-0.896l0,5.76c1.877,-3.968 5.184,-5.952 9.92,-5.952c3.243,0 5.589,0.832 7.04,2.496c0.811,0.853 1.344,2.133 1.6,3.84c1.109,-2.304 2.56,-3.936 4.352,-4.896c1.792,-0.96 3.883,-1.44 6.272,-1.44c3.243,0 5.589,0.832 7.04,2.496c0.683,0.768 1.173,1.813 1.472,3.136c0.299,1.323 0.448,3.051 0.448,5.184l0,17.216Z" style="fill:url(#_Linear16);fill-rule:nonzero;"/><path d="M529.984,50.56c-2.731,0 -4.768,-0.704 -6.112,-2.112c-1.344,-1.408 -2.016,-3.264 -2.016,-5.568c0,-1.92 0.501,-3.509 1.504,-4.768c1.003,-1.259 2.219,-2.229 3.648,-2.912c1.429,-0.683 3.253,-1.408 5.472,-2.176c2.347,-0.811 4.064,-1.547 5.152,-2.208c1.088,-0.661 1.632,-1.568 1.632,-2.72l0,-4.992c0,-1.792 -0.416,-3.189 -1.248,-4.192c-0.832,-1.003 -2.123,-1.504 -3.872,-1.504c-2.048,0 -3.605,0.512 -4.672,1.536c1.195,0.427 2.123,1.067 2.784,1.92c0.661,0.853 0.992,1.856 0.992,3.008c0,1.451 -0.491,2.603 -1.472,3.456c-0.981,0.853 -2.176,1.28 -3.584,1.28c-1.493,0 -2.645,-0.469 -3.456,-1.408c-0.811,-0.939 -1.216,-2.112 -1.216,-3.52c0,-1.195 0.288,-2.208 0.864,-3.04c0.576,-0.832 1.461,-1.611 2.656,-2.336c1.152,-0.683 2.571,-1.216 4.256,-1.6c1.685,-0.384 3.531,-0.576 5.536,-0.576c2.091,0 3.904,0.213 5.44,0.64c1.536,0.427 2.816,1.152 3.84,2.176c0.939,0.939 1.568,2.091 1.888,3.456c0.32,1.365 0.48,3.221 0.48,5.568l0,17.408c0,1.024 0.096,1.749 0.288,2.176c0.192,0.427 0.565,0.64 1.12,0.64c0.64,0 1.408,-0.363 2.304,-1.088l0.64,1.088c-1.92,1.579 -4.267,2.368 -7.04,2.368c-2.347,0 -3.989,-0.469 -4.928,-1.408c-0.939,-0.939 -1.429,-2.197 -1.472,-3.776c-2.133,3.456 -5.269,5.184 -9.408,5.184Zm4.928,-4.096c1.664,0 3.115,-0.875 4.352,-2.624l0,-13.12c-0.512,0.853 -1.6,1.792 -3.264,2.816c-1.664,1.067 -2.923,2.133 -3.776,3.2c-0.853,1.067 -1.28,2.603 -1.28,4.608c0,1.749 0.363,3.04 1.088,3.872c0.725,0.832 1.685,1.248 2.88,1.248Z" style="fill:url(#_Linear17);fill-rule:nonzero;"/><path d="M563.008,0.512c1.792,0 3.211,0.437 4.256,1.312c1.045,0.875 1.568,2.08 1.568,3.616c0,1.536 -0.523,2.741 -1.568,3.616c-1.045,0.875 -2.464,1.312 -4.256,1.312c-1.792,0 -3.211,-0.437 -4.256,-1.312c-1.045,-0.875 -1.568,-2.08 -1.568,-3.616c0,-1.536 0.523,-2.741 1.568,-3.616c1.045,-0.875 2.464,-1.312 4.256,-1.312Zm4.992,43.648c0,1.749 0.309,2.955 0.928,3.616c0.619,0.661 1.675,0.992 3.168,0.992l0,1.344c-4.267,-0.171 -7.104,-0.256 -8.512,-0.256c-1.323,0 -4.288,0.085 -8.896,0.256l0,-1.344c1.536,0 2.603,-0.331 3.2,-0.992c0.597,-0.661 0.896,-1.867 0.896,-3.616l0,-20.16c0,-1.963 -0.299,-3.392 -0.896,-4.288c-0.597,-0.896 -1.664,-1.344 -3.2,-1.344l0,-1.344c1.365,0.128 2.688,0.192 3.968,0.192c3.797,0 6.912,-0.299 9.344,-0.896l0,27.84Z" style="fill:url(#_Linear18);fill-rule:nonzero;"/><path d="M587.904,44.16c0,1.749 0.299,2.955 0.896,3.616c0.597,0.661 1.664,0.992 3.2,0.992l0,1.344c-4.437,-0.171 -7.296,-0.256 -8.576,-0.256c-1.451,0 -4.395,0.085 -8.832,0.256l0,-1.344c1.493,0 2.549,-0.331 3.168,-0.992c0.619,-0.661 0.928,-1.867 0.928,-3.616l0,-36.48c0,-1.963 -0.309,-3.392 -0.928,-4.288c-0.619,-0.896 -1.675,-1.344 -3.168,-1.344l0,-1.344c1.365,0.128 2.688,0.192 3.968,0.192c3.712,0 6.827,-0.299 9.344,-0.896l0,44.16Z" style="fill:url(#_Linear19);fill-rule:nonzero;"/><path d="M601.856,41.152c1.664,0 2.987,0.437 3.968,1.312c0.981,0.875 1.472,2.08 1.472,3.616c0,1.536 -0.491,2.741 -1.472,3.616c-0.981,0.875 -2.304,1.312 -3.968,1.312c-1.664,0 -2.987,-0.437 -3.968,-1.312c-0.981,-0.875 -1.472,-2.08 -1.472,-3.616c0,-1.536 0.491,-2.741 1.472,-3.616c0.981,-0.875 2.304,-1.312 3.968,-1.312Z" style="fill:url(#_Linear20);fill-rule:nonzero;"/><path d="M628.672,16.128c1.579,0 3.072,0.171 4.48,0.512c1.408,0.341 2.581,0.811 3.52,1.408c1.109,0.683 1.973,1.547 2.592,2.592c0.619,1.045 0.928,2.187 0.928,3.424c0,1.493 -0.469,2.72 -1.408,3.68c-0.939,0.96 -2.155,1.44 -3.648,1.44c-1.493,0 -2.688,-0.427 -3.584,-1.28c-0.896,-0.853 -1.344,-2.005 -1.344,-3.456c0,-1.28 0.405,-2.389 1.216,-3.328c0.811,-0.939 1.813,-1.579 3.008,-1.92c-0.341,-0.469 -0.864,-0.843 -1.568,-1.12c-0.704,-0.277 -1.461,-0.416 -2.272,-0.416c-2.56,0 -4.555,1.397 -5.984,4.192c-1.429,2.795 -2.144,6.453 -2.144,10.976c0,4.565 0.811,7.851 2.432,9.856c1.621,2.005 3.648,3.008 6.08,3.008c1.451,0 2.912,-0.384 4.384,-1.152c1.472,-0.768 2.805,-2.112 4,-4.032l1.088,0.384c-0.853,2.773 -2.347,5.152 -4.48,7.136c-2.133,1.984 -4.885,2.976 -8.256,2.976c-4.395,0 -7.979,-1.451 -10.752,-4.352c-2.773,-2.901 -4.16,-7.211 -4.16,-12.928c0,-3.755 0.683,-6.955 2.048,-9.6c1.365,-2.645 3.243,-4.64 5.632,-5.984c2.389,-1.344 5.12,-2.016 8.192,-2.016Z" style="fill:url(#_Linear21);fill-rule:nonzero;"/><path d="M660.288,16.128c4.907,0 8.747,1.397 11.52,4.192c2.773,2.795 4.16,7.221 4.16,13.28c0,6.059 -1.387,10.475 -4.16,13.248c-2.773,2.773 -6.613,4.16 -11.52,4.16c-4.864,0 -8.693,-1.387 -11.488,-4.16c-2.795,-2.773 -4.192,-7.189 -4.192,-13.248c0,-6.059 1.397,-10.485 4.192,-13.28c2.795,-2.795 6.624,-4.192 11.488,-4.192Zm0,1.28c-1.835,0 -3.296,1.333 -4.384,4c-1.088,2.667 -1.632,6.731 -1.632,12.192c0,5.461 0.544,9.515 1.632,12.16c1.088,2.645 2.549,3.968 4.384,3.968c1.877,0 3.349,-1.312 4.416,-3.936c1.067,-2.624 1.6,-6.688 1.6,-12.192c0,-5.504 -0.544,-9.579 -1.632,-12.224c-1.088,-2.645 -2.549,-3.968 -4.384,-3.968Z" style="fill:url(#_Linear22);fill-rule:nonzero;"/><path d="M731.392,44.16c0,1.749 0.309,2.955 0.928,3.616c0.619,0.661 1.675,0.992 3.168,0.992l0,1.344c-4.267,-0.171 -7.083,-0.256 -8.448,-0.256c-1.195,0 -3.84,0.085 -7.936,0.256l0,-1.344c1.152,0 1.952,-0.32 2.4,-0.96c0.448,-0.64 0.672,-1.856 0.672,-3.648l0,-19.904c0,-1.792 -0.267,-3.125 -0.8,-4c-0.533,-0.875 -1.547,-1.312 -3.04,-1.312c-1.579,0 -2.955,0.661 -4.128,1.984c-1.173,1.323 -1.867,2.944 -2.08,4.864l0,18.368c0,1.749 0.267,2.955 0.8,3.616c0.533,0.661 1.504,0.992 2.912,0.992l0,1.344c-4.096,-0.171 -6.784,-0.256 -8.064,-0.256c-1.195,0 -3.84,0.085 -7.936,0.256l0,-1.344c1.152,0 1.952,-0.331 2.4,-0.992c0.448,-0.661 0.672,-1.867 0.672,-3.616l0,-19.904c0,-1.792 -0.235,-3.125 -0.704,-4c-0.469,-0.875 -1.387,-1.312 -2.752,-1.312c-1.707,0 -3.168,0.715 -4.384,2.144c-1.216,1.429 -1.824,3.189 -1.824,5.28l0,17.792c0,1.749 0.224,2.955 0.672,3.616c0.448,0.661 1.248,0.992 2.4,0.992l0,1.344c-3.755,-0.171 -6.272,-0.256 -7.552,-0.256c-1.28,0 -4.224,0.085 -8.832,0.256l0,-1.344c1.536,0 2.603,-0.331 3.2,-0.992c0.597,-0.661 0.896,-1.867 0.896,-3.616l0,-20.16c0,-1.963 -0.299,-3.392 -0.896,-4.288c-0.597,-0.896 -1.664,-1.344 -3.2,-1.344l0,-1.344c1.365,0.128 2.688,0.192 3.968,0.192c3.797,0 6.912,-0.299 9.344,-0.896l0,5.76c1.877,-3.968 5.184,-5.952 9.92,-5.952c3.243,0 5.589,0.832 7.04,2.496c0.811,0.853 1.344,2.133 1.6,3.84c1.109,-2.304 2.56,-3.936 4.352,-4.896c1.792,-0.96 3.883,-1.44 6.272,-1.44c3.243,0 5.589,0.832 7.04,2.496c0.683,0.768 1.173,1.813 1.472,3.136c0.299,1.323 0.448,3.051 0.448,5.184l0,17.216Z" style="fill:url(#_Linear23);fill-rule:nonzero;"/><defs><linearGradient id="_Linear1" x1="0" y1="0" x2="1" y2="0" gradientUnits="userSpaceOnUse" gradientTransform="matrix(737.536,0,0,85.312,-1.216,23.52)"><stop offset="0" style="stop-color:#1565c0;stop-opacity:1"/><stop offset="1" style="stop-color:#52b2d2;stop-opacity:1"/></linearGradient><linearGradient id="_Linear2" x1="0" y1="0" x2="1" y2="0" gradientUnits="userSpaceOnUse" gradientTransform="matrix(737.536,0,0,85.312,-1.216,23.52)"><stop offset="0" style="stop-color:#1565c0;stop-opacity:1"/><stop offset="1" style="stop-color:#52b2d2;stop-opacity:1"/></linearGradient><linearGradient id="_Linear3" x1="0" y1="0" x2="1" y2="0" gradientUnits="userSpaceOnUse" gradientTransform="matrix(737.536,0,0,85.312,-1.216,23.52)"><stop offset="0" style="stop-color:#1565c0;stop-opacity:1"/><stop offset="1" style="stop-color:#52b2d2;stop-opacity:1"/></linearGradient><linearGradient id="_Linear4" x1="0" y1="0" x2="1" y2="0" gradientUnits="userSpaceOnUse" gradientTransform="matrix(737.536,0,0,85.312,-1.216,23.52)"><stop offset="0" style="stop-color:#1565c0;stop-opacity:1"/><stop offset="1" style="stop-color:#52b2d2;stop-opacity:1"/></linearGradient><linearGradient id="_Linear5" x1="0" y1="0" x2="1" y2="0" gradientUnits="userSpaceOnUse" gradientTransform="matrix(737.536,0,0,85.312,-1.216,23.52)"><stop offset="0" style="stop-color:#1565c0;stop-opacity:1"/><stop offset="1" style="stop-color:#52b2d2;stop-opacity:1"/></linearGradient><linearGradient id="_Linear6" x1="0" y1="0" x2="1" y2="0" gradientUnits="userSpaceOnUse" gradientTransform="matrix(737.536,0,0,85.312,-1.216,23.52)"><stop offset="0" style="stop-color:#1565c0;stop-opacity:1"/><stop offset="1" style="stop-color:#52b2d2;stop-opacity:1"/></linearGradient><linearGradient id="_Linear7" x1="0" y1="0" x2="1" y2="0" gradientUnits="userSpaceOnUse" gradientTransform="matrix(737.536,0,0,85.312,-1.216,23.52)"><stop offset="0" style="stop-color:#1565c0;stop-opacity:1"/><stop offset="1" style="stop-color:#52b2d2;stop-opacity:1"/></linearGradient><linearGradient id="_Linear8" x1="0" y1="0" x2="1" y2="0" gradientUnits="userSpaceOnUse" gradientTransform="matrix(737.536,0,0,85.312,-1.216,23.52)"><stop offset="0" style="stop-color:#1565c0;stop-opacity:1"/><stop offset="1" style="stop-color:#52b2d2;stop-opacity:1"/></linearGradient><linearGradient id="_Linear9" x1="0" y1="0" x2="1" y2="0" gradientUnits="userSpaceOnUse" gradientTransform="matrix(737.536,0,0,85.312,-1.216,23.52)"><stop offset="0" style="stop-color:#1565c0;stop-opacity:1"/><stop offset="1" style="stop-color:#52b2d2;stop-opacity:1"/></linearGradient><linearGradient id="_Linear10" x1="0" y1="0" x2="1" y2="0" gradientUnits="userSpaceOnUse" gradientTransform="matrix(737.536,0,0,85.312,-1.216,23.52)"><stop offset="0" style="stop-color:#1565c0;stop-opacity:1"/><stop offset="1" style="stop-color:#52b2d2;stop-opacity:1"/></linearGradient><linearGradient id="_Linear11" x1="0" y1="0" x2="1" y2="0" gradientUnits="userSpaceOnUse" gradientTransform="matrix(737.536,0,0,85.312,-1.216,23.52)"><stop offset="0" style="stop-color:#1565c0;stop-opacity:1"/><stop offset="1" style="stop-color:#52b2d2;stop-opacity:1"/></linearGradient><linearGradient id="_Linear12" x1="0" y1="0" x2="1" y2="0" gradientUnits="userSpaceOnUse" gradientTransform="matrix(737.536,0,0,85.312,-1.216,23.52)"><stop offset="0" style="stop-color:#1565c0;stop-opacity:1"/><stop offset="1" style="stop-color:#52b2d2;stop-opacity:1"/></linearGradient><linearGradient id="_Linear13" x1="0" y1="0" x2="1" y2="0" gradientUnits="userSpaceOnUse" gradientTransform="matrix(737.536,0,0,85.312,-1.216,23.52)"><stop offset="0" style="stop-color:#1565c0;stop-opacity:1"/><stop offset="1" style="stop-color:#52b2d2;stop-opacity:1"/></linearGradient><linearGradient id="_Linear14" x1="0" y1="0" x2="1" y2="0" gradientUnits="userSpaceOnUse" gradientTransform="matrix(737.536,0,0,85.312,-1.216,23.52)"><stop offset="0" style="stop-color:#1565c0;stop-opacity:1"/><stop offset="1" style="stop-color:#52b2d2;stop-opacity:1"/></linearGradient><linearGradient id="_Linear15" x1="0" y1="0" x2="1" y2="0" gradientUnits="userSpaceOnUse" gradientTransform="matrix(737.536,0,0,85.312,-1.216,23.52)"><stop offset="0" style="stop-color:#1565c0;stop-opacity:1"/><stop offset="1" style="stop-color:#52b2d2;stop-opacity:1"/></linearGradient><linearGradient id="_Linear16" x1="0" y1="0" x2="1" y2="0" gradientUnits="userSpaceOnUse" gradientTransform="matrix(737.536,0,0,85.312,-1.216,23.52)"><stop offset="0" style="stop-color:#1565c0;stop-opacity:1"/><stop offset="1" style="stop-color:#52b2d2;stop-opacity:1"/></linearGradient><linearGradient id="_Linear17" x1="0" y1="0" x2="1" y2="0" gradientUnits="userSpaceOnUse" gradientTransform="matrix(737.536,0,0,85.312,-1.216,23.52)"><stop offset="0" style="stop-color:#1565c0;stop-opacity:1"/><stop offset="1" style="stop-color:#52b2d2;stop-opacity:1"/></linearGradient><linearGradient id="_Linear18" x1="0" y1="0" x2="1" y2="0" gradientUnits="userSpaceOnUse" gradientTransform="matrix(737.536,0,0,85.312,-1.216,23.52)"><stop offset="0" style="stop-color:#1565c0;stop-opacity:1"/><stop offset="1" style="stop-color:#52b2d2;stop-opacity:1"/></linearGradient><linearGradient id="_Linear19" x1="0" y1="0" x2="1" y2="0" gradientUnits="userSpaceOnUse" gradientTransform="matrix(737.536,0,0,85.312,-1.216,23.52)"><stop offset="0" style="stop-color:#1565c0;stop-opacity:1"/><stop offset="1" style="stop-color:#52b2d2;stop-opacity:1"/></linearGradient><linearGradient id="_Linear20" x1="0" y1="0" x2="1" y2="0" gradientUnits="userSpaceOnUse" gradientTransform="matrix(737.536,0,0,85.312,-1.216,23.52)"><stop offset="0" style="stop-color:#1565c0;stop-opacity:1"/><stop offset="1" style="stop-color:#52b2d2;stop-opacity:1"/></linearGradient><linearGradient id="_Linear21" x1="0" y1="0" x2="1" y2="0" gradientUnits="userSpaceOnUse" gradientTransform="matrix(737.536,0,0,85.312,-1.216,23.52)"><stop offset="0" style="stop-color:#1565c0;stop-opacity:1"/><stop offset="1" style="stop-color:#52b2d2;stop-opacity:1"/></linearGradient><linearGradient id="_Linear22" x1="0" y1="0" x2="1" y2="0" gradientUnits="userSpaceOnUse" gradientTransform="matrix(737.536,0,0,85.312,-1.216,23.52)"><stop offset="0" style="stop-color:#1565c0;stop-opacity:1"/><stop offset="1" style="stop-color:#52b2d2;stop-opacity:1"/></linearGradient><linearGradient id="_Linear23" x1="0" y1="0" x2="1" y2="0" gradientUnits="userSpaceOnUse" gradientTransform="matrix(737.536,0,0,85.312,-1.216,23.52)"><stop offset="0" style="stop-color:#1565c0;stop-opacity:1"/><stop offset="1" style="stop-color:#52b2d2;stop-opacity:1"/></linearGradient></defs></svg>