<svg xmlns="http://www.w3.org/2000/svg" xmlns:xlink="http://www.w3.org/1999/xlink" version="1.1" baseProfile="full" width="48.0009" height="72" viewBox="0 0 48.00 72.00" enable-background="new 0 0 48.00 72.00" xml:space="preserve">
	<path fill="#000000" fill-opacity="1" stroke-width="0.2" stroke-linejoin="round" d="M 24.0004,0L 26.4003,2.39941L 31.6442,7.64355L 26.8443,12.4434L 26.3642,12.9229L 24.0004,15.2866L 14.844,24.4429L 9.60013,29.687L 9.60013,33.5996L 9.60025,48L 16.8003,40.7998L 24.0004,33.5996L 33.1568,24.4429L 35.5206,22.0796L 40.8007,16.7993L 48.0009,23.9995L 48.0009,28.7993L 48.0009,39.2871L 48.0009,57.6001L 48.0009,60.48L 48.0009,72L 38.4007,62.3999L 24.0004,47.9995L 9.60013,62.3999L -6.10352e-005,72L -6.10352e-005,60.48L -6.10352e-005,57.6001L -6.10352e-005,39.2871L -6.10352e-005,28.7993L -6.10352e-005,23.9995L 7.2001,16.7993L 18.7197,5.27979L 21.6005,2.39941L 24.0004,0 Z M 31.2005,40.8003L 38.4005,48L 38.4005,33.6006L 31.2005,40.8003 Z "/>
</svg>
