<svg xmlns="http://www.w3.org/2000/svg" viewBox="0 0 557.293 2510.524">
  <defs>
    <style>
      .cls-1 {
        fill: #0800ff;
        opacity: 0.04;
      }
    </style>
  </defs>
  <g id="hello" transform="translate(758.275 -109.432) rotate(90)">
    <path id="Path_57" data-name="Path 57" class="cls-1" d="M46.713,78.436l62.063,18.778q-25.462,42.33-25.462,80.841,0,32.464,30.236,47.1,29.281,14.322,90.389,14.322,112.668,0,176.641-9.23l.637,71.611q-88.8,5.411-176,5.411-187.78,0-187.78-123.171Q17.432,131.27,46.713,78.436Zm7.957-271.8q45.513,2.546,125.717,2.546,77.658,0,169.32-7.957l9.866,62.7q-28.008,9.867-64.927,34.373Q268.229-84.2,190.253-27.23l-42.967-43.6q62.063-41.057,106.621-66.519-50.287,6.365-88.479,6.365-60.153,0-110.758-1.273ZM637.424-235.7l66.519,21.961q-32.782,75.749-121.9,277.851l3.819,1.273q18.778-29.6,42.967-45.831Q648.564,5.871,666.068,5.871q48.7,0,68.428,29.918,19.415,29.281,23.552,100.574,3.819,67.473,13.367,87.843,7.32,15.914,24.189,15.914,20.369,0,31.827-10.185,9.23-7.957,17.823-27.053,21.006-46.149,28.644-138.13l62.063,31.827q-7.957,94.845-37.238,147.36Q861.487,309.82,790.513,309.82q-52.2,0-75.112-35.965-18.778-29.6-21.961-91.344-4.456-79.568-14-104.075Q673.071,62.2,659.385,62.2q-33.737,0-74.157,55.379-26.735,36.283-82.751,191.6L437.868,286.9Q559.129-35.186,637.424-235.7ZM1161.935,112.81l63.654,5.411q-7.639,26.1-7.638,49.332,0,31.191,21.324,44.24,18.778,11.14,58.244,11.139a1255.689,1255.689,0,0,0,137.493-7.639l1.91,67.792q-57.607,4.456-134.947,4.456-80.523,0-116.169-29.281-31.827-26.417-31.827-79.568A281.049,281.049,0,0,1,1161.935,112.81Zm13.049-195.419v-64.609q83.069-5.729,170.593-5.729,42.649,0,85.933,2.546v63.336q-33.1-2.864-90.389-2.864Q1259.963-89.929,1174.984-82.609ZM1123.424-213.1q-17.187,76.067-28.008,170.593-9.23,81.477-9.23,138.448,0,118.079,15.6,207.195l-68.428,6.047q-14.959-97.391-14.958-214.515,0-68.747,12.731-169.639,9.866-77.658,23.234-144.5Zm502.55,122.534q-75.748,1.273-105.029,1.273v-59.2q78.932,0,118.079-1.273,9.867-50.287,14.959-93.253l70.338,4.456q-9.548,51.878-18.141,86.888Q1824.894-157.4,1907.326-166v61.745q-95.481,7-215.469,11.139-25.78,98.982-65.882,173.458l1.273,1.273q66.837-67.792,164.228-67.792,71.929,0,111.395,41.694,34.055,35.965,34.055,93.89,0,90.389-80.841,131.764-63.654,32.145-229.474,33.1l-16.868-59.835q161.045-.955,207.831-27.371Q1865,200.334,1865,146.228q0-78.931-82.75-78.931-49.014,0-88.8,22.916-41.057,23.552-82.432,76.067l-67.155-31.827Q1595.739,31.651,1625.974-90.566Zm780.72,30.236q.954,108.212,6.047,203.375,59.516,28.644,115.214,85.3l-44.876,55.379q-36.6-49.969-70.975-72.248v3.183q0,45.831-35.01,70.656-31.509,22.6-84.342,22.6-120.625,0-120.625-94.527,0-43.285,35.328-68.747,31.191-22.6,79.25-22.6a336.009,336.009,0,0,1,59.517,5.092q-4.456-93.253-5.411-184.916-55.7,1.91-108.849,1.91-3.82,0-63.654-1.273v-57.289q45.831,1.91,80.2,1.91,44.876,0,91.662-1.91V-228.059h67.155q-.636,39.147-.636,109.485,47.1-2.546,103.12-8.912v60.472Q2474.8-64.149,2406.695-60.33Zm-58.562,246.979q-24.189-11.139-63.336-11.139-26.1,0-41.693,11.139-14.323,10.5-14.322,27.371,0,39.147,62.7,39.147,56.652,0,56.652-54.743Zm-203.375-408.66Q2101.79-31.685,2101.79,101.034q0,89.434,18.142,204.012l-67.156,6.047q-15.6-111.713-15.6-211.332,0-132.083,39.784-327.183Z" transform="translate(92 444)"/>
  </g>
</svg>
