<?xml version="1.0" encoding="UTF-8" standalone="no"?><!DOCTYPE svg PUBLIC "-//W3C//DTD SVG 1.1//EN" "http://www.w3.org/Graphics/SVG/1.1/DTD/svg11.dtd"><svg width="100%" height="100%" viewBox="0 0 320 320" version="1.1" xmlns="http://www.w3.org/2000/svg" xmlns:xlink="http://www.w3.org/1999/xlink" xml:space="preserve" xmlns:serif="http://www.serif.com/" style="fill-rule:evenodd;clip-rule:evenodd;stroke-linejoin:round;stroke-miterlimit:1.41421;"><path d="M223.608,199.591l-27.185,0c-25.294,0 -45.829,-16.634 -45.829,-37.122c0,-20.488 20.535,-37.122 45.829,-37.122l76.424,0l0.238,0c20.277,0.128 36.718,16.547 36.868,36.81l-0.031,1.251l-0.125,3.305l-0.649,8.919l-0.046,0.726l0.108,-0.854l-0.108,0.854l-0.625,4.913l-0.186,1.457l-0.038,0.243l-1.28,7.16l-0.039,0.189l-1.637,7.086l-0.036,0.136l-1.99,7.003l-0.026,0.082l-2.34,6.911l-0.011,0.029c-20.981,57.286 -75.984,98.273 -140.507,98.433l-0.379,0c-23.284,0 -45.336,-5.317 -64.999,-14.797c-50.258,-24.249 -84.962,-75.695 -84.962,-135.184c0,-1.839 0.033,-3.671 0.099,-5.495l0.013,-0.364l-0.005,0.068l0.015,-0.577l0.203,-3.584l0.305,-4.008l0.37,-3.458l0.512,-4.028l0.523,-3.332l0.723,-4.041l0.666,-3.204l0.935,-4.046l0.798,-3.073l1.15,-4.045l0.918,-2.94l1.367,-4.036l1.028,-2.805l1.586,-4.02l1.127,-2.668l1.808,-3.996l1.214,-2.53l2.031,-3.965l1.291,-2.39l2.258,-3.925l1.355,-2.249l2.487,-3.878l1.409,-2.106l2.719,-3.822l1.451,-1.962l2.954,-3.759l1.48,-1.817l3.194,-3.687l1.497,-1.671l3.438,-3.606l1.499,-1.524l3.689,-3.517l1.486,-1.377l3.947,-3.419l1.457,-1.228l4.215,-3.313l1.409,-1.079l4.495,-3.198l1.34,-0.929l4.793,-3.074l1.243,-0.778l5.114,-2.942l1.115,-0.627l5.466,-2.801l0.947,-0.474l5.862,-2.652l0.724,-0.321l6.324,-2.495l0.428,-0.165l6.882,-2.331l0.025,-0.008c14.084,-4.385 29.059,-6.748 44.582,-6.748l5.871,0.149l1.971,0.056l4.838,0.368l3.31,0.286l4.232,0.539l3.967,0.574l3.477,0.622l5.022,1.027l2.789,0.645l1.354,0.348l1.269,0.291l0.16,0.046l-0.186,0.038l-0.03,0.004l-0.014,0.003l0.044,-0.007l0.174,0.057c14.757,4.885 25.412,18.813 25.412,35.211c0,20.408 -16.504,36.992 -36.882,37.122l-0.24,0c0,0 -4.404,-0.315 -9.676,-0.715c-1.809,-0.137 -1.713,-0.144 -1.753,-0.147l-0.02,-0.004l-0.765,-0.128l-2.909,-0.52l-0.883,-0.113l-0.482,-0.08l-0.622,-0.06l-1.764,-0.224l-2.646,-0.202l-0.115,-0.011l-0.054,-0.002c-1.623,-0.122 -3.23,-0.173 -4.849,-0.173c-14.947,0 -28.878,4.382 -40.517,11.963l-0.604,0.363l-0.035,0.025l-0.765,0.465l-2.794,2.09l-1.352,0.97l-0.407,0.346l-1.222,0.913l-2.001,1.82l-1.005,0.852l-0.698,0.696l-1.623,1.474l-1.378,1.517l-0.603,0.601l-0.875,1.024l-1.986,2.186l-0.857,1.146l-0.228,0.267l-0.808,1.118c-9.587,12.514 -15.242,28.184 -15.242,45.164c0,29.752 17.361,55.48 42.504,67.603c9.852,4.755 20.885,7.416 32.535,7.416l2.705,-0.088l1.113,-0.029l0.194,-0.014l0.986,-0.033l1.873,-0.185l0.754,-0.058l0.606,-0.077l1.679,-0.166l1.237,-0.205l0.229,-0.029l0.668,-0.119c3.371,-0.538 6.668,-1.303 9.842,-2.286l0.367,-0.104l0.189,-0.064l1.574,-0.477l1.587,-0.593l0.134,-0.046l0.237,-0.094l0.184,-0.068l0.063,-0.023l0.121,-0.045l0.078,-0.029l0.106,-0.04l0.087,-0.033l0.096,-0.036l0.095,-0.036l0.089,-0.034l0.103,-0.04l0.08,-0.03l0.113,-0.044l0.069,-0.027l0.124,-0.048l0.059,-0.023l0.135,-0.053l0.047,-0.018l0.149,-0.059l0.032,-0.013l0.164,-0.066l0.018,-0.007l0.18,-0.072l0.001,-0.001c14.748,-5.956 27.161,-16.498 35.541,-29.916l-0.147,0Zm0.047,-0.075l0.122,-0.193l0.168,-0.27l-0.168,0.27l-0.122,0.193Zm86.052,-30.416l0.089,-1.173l-0.089,1.173l0,0Zm0,0c0,0 -0.465,6.109 -0.465,6.109l0.465,-6.109l0.09,-2.387l0.063,-0.861l-0.153,3.248Z" style="fill:url(#_Linear1);"/><defs><linearGradient id="_Linear1" x1="0" y1="0" x2="1" y2="0" gradientUnits="userSpaceOnUse" gradientTransform="matrix(-76.9522,289.73,-289.73,-76.9522,192.696,13.6214)"><stop offset="0" style="stop-color:#1565c0;stop-opacity:0.501961"/><stop offset="0.47" style="stop-color:#1565c0;stop-opacity:0.886275"/><stop offset="1" style="stop-color:#1565c0;stop-opacity:1"/></linearGradient></defs></svg>