<?xml version="1.0" encoding="utf-8"?>
<!DOCTYPE svg PUBLIC "-//W3C//DTD SVG 1.1//EN" "http://www.w3.org/Graphics/SVG/1.1/DTD/svg11.dtd">
<svg xmlns="http://www.w3.org/2000/svg" xmlns:xlink="http://www.w3.org/1999/xlink" version="1.1" baseProfile="full" width="45.3803" height="18.9207" viewBox="0 0 45.38 18.92" enable-background="new 0 0 45.38 18.92" xml:space="preserve">
	<g>
		<path fill="#FFFF00" fill-opacity="0.803922" fill-rule="evenodd" stroke-width="0.2" stroke-linecap="round" stroke-linejoin="round" stroke="#000000" stroke-opacity="1" d="M 44.427,11.0896L 44.7701,10.4955L 45.3643,10.8385L 45.0212,11.4327L 44.427,11.0896 Z "/>
		<path fill="#FFFF00" fill-opacity="0.803922" stroke-width="0.2" stroke-linecap="round" stroke-linejoin="round" stroke="#000000" stroke-opacity="1" d="M 10.0036,9.2627L 8.9809,9.85303L 10.0036,10.4435L 10.0036,9.2627 Z "/>
		<path fill="#FFFF00" fill-opacity="0.803922" stroke-width="0.2" stroke-linecap="round" stroke-linejoin="round" stroke="#000000" stroke-opacity="1" d="M 2.88766,2.65063C 2.98239,2.48657 3.19223,2.43042 3.35632,2.52515C 3.5204,2.61987 3.57663,2.82971 3.48189,2.99377C 3.38716,3.15784 3.17732,3.21411 3.01324,3.11938C 2.84915,3.02466 2.79292,2.81482 2.88766,2.65063 Z "/>
		<path fill="#FFFF00" fill-opacity="0.803922" stroke-width="0.2" stroke-linecap="round" stroke-linejoin="round" stroke="#000000" stroke-opacity="1" d="M 42.2677,1.61243L 43.864,0.0159912L 43.9716,0.123657L 42.3752,1.71997L 42.2677,1.61243 Z "/>
		<g>
			<line fill="none" stroke-width="0.2" stroke-linecap="round" stroke-linejoin="round" x1="1.0593" y1="7.06189" x2="2.23932" y2="5.01807"/>
			<g>
				<path fill="#FFFF00" fill-opacity="0.803922" stroke-width="0.2" stroke-linecap="round" stroke-linejoin="round" d="M 0.996216,7.02539C 1.03827,7.04968 1.07822,7.08032 1.12238,7.09827C 1.1344,7.10315 1.11171,7.07959 1.10645,7.07031C 1.09102,7.04297 1.07578,7.01563 1.06241,6.98828C 1.02759,6.91736 1.00925,6.83289 1.05812,6.7959C 1.08998,6.77185 1.14182,6.76416 1.19315,6.76062C 1.2695,6.75513 1.35274,6.76025 1.42737,6.75232C 1.51962,6.74255 1.59621,6.69275 1.6022,6.61865C 1.60696,6.55981 1.55995,6.48462 1.51572,6.41699C 1.47366,6.3927 1.43362,6.36267 1.38956,6.34412C 1.37799,6.33936 1.40106,6.36206 1.40675,6.37109C 1.4234,6.39746 1.43985,6.42383 1.4543,6.4502C 1.47552,6.48877 1.4939,6.52905 1.49591,6.56421C 1.4977,6.59546 1.48508,6.62341 1.46167,6.64136C 1.42873,6.6665 1.37552,6.67517 1.32277,6.67993C 1.21242,6.6897 1.08105,6.67725 0.997711,6.71777C 0.949478,6.74121 0.920837,6.78711 0.924255,6.84058C 0.927887,6.89758 0.963593,6.96301 0.996216,7.02539 Z "/>
				<path fill="#FFFF00" fill-opacity="0.803922" stroke-width="0.2" stroke-linecap="round" stroke-linejoin="round" d="M 1.38956,6.34412C 1.43161,6.36841 1.47156,6.39905 1.51572,6.41699C 1.52774,6.42188 1.50504,6.39832 1.49977,6.38892C 1.48434,6.36169 1.46912,6.33435 1.45575,6.30713C 1.42091,6.23608 1.40259,6.15161 1.45148,6.11475C 1.48331,6.09058 1.53516,6.08301 1.58649,6.07935C 1.66284,6.07397 1.74609,6.07898 1.82069,6.07104C 1.91296,6.06128 1.98953,6.01147 1.99554,5.93738C 2.00031,5.87854 1.95331,5.80334 1.90906,5.73572C 1.867,5.71143 1.82697,5.6814 1.7829,5.66284C 1.77133,5.65796 1.7944,5.68091 1.80008,5.68982C 1.81673,5.71619 1.83321,5.74255 1.84766,5.7688C 1.86885,5.8075 1.88722,5.84766 1.88924,5.88293C 1.89102,5.91431 1.87842,5.94214 1.855,5.95996C 1.82205,5.98523 1.76886,5.9939 1.71609,5.99854C 1.60577,6.00842 1.4744,5.99609 1.39105,6.03662C 1.34283,6.06006 1.31416,6.10596 1.31758,6.15918C 1.32123,6.21631 1.35693,6.28174 1.38956,6.34412 Z "/>
				<path fill="#FFFF00" fill-opacity="0.803922" stroke-width="0.2" stroke-linecap="round" stroke-linejoin="round" d="M 1.7829,5.66284C 1.82495,5.68713 1.8649,5.71777 1.90906,5.73572C 1.92108,5.7406 1.89839,5.71704 1.89313,5.70776C 1.8777,5.68042 1.86244,5.65308 1.84908,5.62573C 1.81424,5.55481 1.79591,5.47034 1.8448,5.43335C 1.87666,5.4093 1.9285,5.40161 1.97983,5.39795C 2.05618,5.39258 2.13942,5.39771 2.21402,5.38977C 2.30629,5.38 2.38287,5.3302 2.38887,5.2561C 2.39363,5.19727 2.34663,5.12207 2.30238,5.05444C 2.26033,5.03015 2.22029,5.00012 2.17622,4.98157C 2.16467,4.97668 2.18774,4.99951 2.19344,5.00854C 2.21008,5.03491 2.22653,5.06128 2.24098,5.08765C 2.26221,5.12622 2.28058,5.16638 2.28259,5.20166C 2.28438,5.23291 2.27176,5.26074 2.24832,5.27881C 2.21541,5.30396 2.1622,5.31262 2.10944,5.31738C 1.9991,5.32715 1.86774,5.3147 1.78438,5.35522C 1.73616,5.37866 1.70752,5.42456 1.71091,5.47803C 1.71455,5.53503 1.75026,5.60046 1.7829,5.66284 Z "/>
				<path fill="#FFFF00" fill-opacity="0.803922" stroke-width="0.2" stroke-linecap="round" stroke-linejoin="round" d="M 2.17622,4.98157C 2.19107,5.00024 2.21455,5.01025 2.23524,5.02222C 2.25674,5.03467 2.27939,5.04517 2.30238,5.05444C 2.3042,5.05518 2.30188,5.05054 2.30081,5.04883C 2.27353,5.00708 2.23972,4.95605 2.19055,4.94739C 2.18201,4.94592 2.17117,4.95215 2.16782,4.96008C 2.16486,4.96716 2.17145,4.97559 2.17622,4.98157 Z "/>
				<path fill="#FFFF00" fill-opacity="0.803922" stroke-width="0.2" stroke-linecap="round" stroke-linejoin="round" d="M 0.996216,7.02539C 1.01788,7.06177 1.04095,7.10242 1.07826,7.12244C 1.09305,7.13037 1.12344,7.11499 1.12238,7.09827L 0.996216,7.02539 Z "/>
			</g>
		</g>
		<path fill="#FF0000" fill-opacity="0.803922" stroke-width="0.2" stroke-linecap="round" stroke-linejoin="round" stroke="#000000" stroke-opacity="1" d="M 18.9944,17.8906L 19.609,17.276L 20.2236,17.8906L 19.609,18.5052L 18.9944,17.8906 Z "/>
		<path fill="#FF0000" fill-opacity="0.803922" stroke-width="0.2" stroke-linecap="round" stroke-linejoin="round" stroke="#000000" stroke-opacity="1" d="M 16.3607,3.09839L 15.6127,4.39392L 17.1087,4.39392L 16.3607,3.09839 Z "/>
		<path fill="#FF0000" fill-opacity="0.803922" stroke-width="0.2" stroke-linecap="round" stroke-linejoin="round" stroke="#000000" stroke-opacity="1" d="M 24.4908,11.8553C 24.6605,11.6855 24.9357,11.6855 25.1055,11.8553C 25.2752,12.0251 25.2752,12.3003 25.1055,12.47C 24.9357,12.6396 24.6605,12.6396 24.4908,12.47C 24.3211,12.3003 24.3211,12.0251 24.4908,11.8553 Z "/>
		<path fill="#FF0000" fill-opacity="0.803922" stroke-width="0.2" stroke-linecap="round" stroke-linejoin="round" stroke="#000000" stroke-opacity="1" d="M 34.979,15.3405L 36.5661,12.9612L 36.7264,13.0681L 35.1394,15.4475L 34.979,15.3405 Z "/>
		<g>
			<line fill="none" stroke-width="0.2" stroke-linecap="round" stroke-linejoin="round" x1="32.3031" y1="2.84888" x2="34.4172" y2="0.734863"/>
			<g>
				<path fill="#FF0000" fill-opacity="0.803922" stroke-width="0.2" stroke-linecap="round" stroke-linejoin="round" d="M 32.2378,2.78357C 32.2813,2.82715 32.3202,2.87769 32.3683,2.91406C 32.3814,2.92407 32.3614,2.8877 32.358,2.87451C 32.3481,2.83618 32.3384,2.79761 32.331,2.76001C 32.3116,2.66162 32.3169,2.55225 32.3888,2.52307C 32.4357,2.50403 32.5016,2.51172 32.5656,2.52405C 32.6608,2.54248 32.761,2.57593 32.8549,2.59082C 32.971,2.60901 33.0811,2.57324 33.1127,2.4845C 33.1378,2.41406 33.1049,2.30664 33.073,2.20947C 33.0295,2.16589 32.9904,2.11609 32.9425,2.07886C 32.9299,2.06909 32.9507,2.10474 32.9547,2.11755C 32.9664,2.15527 32.9779,2.19287 32.987,2.22986C 33.0003,2.28406 33.0096,2.33936 33.0005,2.38306C 32.9924,2.42188 32.9678,2.4519 32.9333,2.46619C 32.8847,2.48621 32.8168,2.47937 32.7507,2.46777C 32.6125,2.44373 32.4558,2.3855 32.3405,2.40771C 32.2738,2.42053 32.2237,2.46729 32.2104,2.53369C 32.1961,2.60474 32.2183,2.69653 32.2378,2.78357 Z "/>
				<path fill="#FF0000" fill-opacity="0.803922" stroke-width="0.2" stroke-linecap="round" stroke-linejoin="round" d="M 32.9425,2.07886C 32.986,2.12244 33.0249,2.17297 33.073,2.20947C 33.0861,2.21936 33.0661,2.18311 33.0627,2.16992C 33.0528,2.13135 33.0431,2.09302 33.0357,2.05518C 33.0163,1.95691 33.0216,1.84766 33.0935,1.81836C 33.1404,1.79932 33.2063,1.80701 33.2703,1.81934C 33.3655,1.83789 33.4657,1.87134 33.5596,1.88611C 33.6757,1.9043 33.7858,1.86853 33.8174,1.77979C 33.8425,1.70935 33.8096,1.60205 33.7777,1.50464C 33.7342,1.46118 33.695,1.41138 33.6472,1.37427C 33.6346,1.3645 33.6554,1.3999 33.6594,1.41284C 33.6711,1.45044 33.6826,1.48816 33.6917,1.52515C 33.705,1.57935 33.7143,1.63452 33.7052,1.67834C 33.6971,1.71729 33.6725,1.74719 33.638,1.76147C 33.5894,1.78149 33.5215,1.77466 33.4554,1.76318C 33.3172,1.73901 33.1605,1.68079 33.0452,1.703C 32.9785,1.71582 32.9284,1.7627 32.9151,1.8291C 32.9008,1.90002 32.923,1.99182 32.9425,2.07886 Z "/>
				<path fill="#FF0000" fill-opacity="0.803922" stroke-width="0.2" stroke-linecap="round" stroke-linejoin="round" d="M 33.6472,1.37427C 33.6907,1.41772 33.7296,1.46826 33.7777,1.50464C 33.7908,1.51465 33.7708,1.47839 33.7674,1.46521C 33.7575,1.42676 33.7478,1.38818 33.7404,1.35059C 33.721,1.2522 33.7263,1.14282 33.7982,1.11377C 33.8451,1.09473 33.911,1.10229 33.975,1.11475C 34.0702,1.13306 34.1704,1.16663 34.2643,1.1814C 34.3804,1.19971 34.4904,1.16382 34.5221,1.0752C 34.5472,1.00464 34.5143,0.897339 34.4824,0.800049C 34.4389,0.756592 34.3997,0.706665 34.3519,0.669556C 34.3393,0.65979 34.3601,0.695313 34.3641,0.70813C 34.3758,0.74585 34.3873,0.783447 34.3964,0.820435C 34.4097,0.874756 34.419,0.929932 34.4099,0.973633C 34.4018,1.01257 34.3772,1.04248 34.3427,1.05676C 34.2941,1.0769 34.2262,1.06995 34.1601,1.05847C 34.0219,1.0343 33.8651,0.976074 33.7499,0.998291C 33.6832,1.01123 33.6331,1.05786 33.6198,1.12427C 33.6055,1.19531 33.6277,1.28711 33.6472,1.37427 Z "/>
				<path fill="#FF0000" fill-opacity="0.803922" stroke-width="0.2" stroke-linecap="round" stroke-linejoin="round" d="M 34.3519,0.669556C 34.3639,0.697266 34.3894,0.717285 34.4108,0.738647C 34.433,0.760864 34.4573,0.781006 34.4824,0.800049C 34.4843,0.801514 34.4831,0.794922 34.4823,0.792725C 34.4626,0.732544 34.438,0.65918 34.3806,0.632446C 34.3707,0.627686 34.3554,0.631836 34.3486,0.640381C 34.3427,0.648193 34.348,0.660645 34.3519,0.669556 Z "/>
				<path fill="#FF0000" fill-opacity="0.803922" stroke-width="0.2" stroke-linecap="round" stroke-linejoin="round" d="M 32.2378,2.78357C 32.2524,2.83521 32.2673,2.89246 32.3064,2.9292C 32.3219,2.94385 32.3641,2.93494 32.3683,2.91406L 32.2378,2.78357 Z "/>
			</g>
		</g>
		<rect x="27.5557" y="1.86548" fill="#230FD2" fill-opacity="0.803922" stroke-width="0.2" stroke-linecap="round" stroke-linejoin="round" stroke="#000000" stroke-opacity="1" width="0.67189" height="0.671875"/>
		<path fill="#230FD2" fill-opacity="0.803922" stroke-width="0.2" stroke-linecap="round" stroke-linejoin="round" stroke="#000000" stroke-opacity="1" d="M 21.6805,14.772L 20.679,14.1938L 20.679,15.3501L 21.6805,14.772 Z "/>
		<path fill="#230FD2" fill-opacity="0.803922" stroke-width="0.2" stroke-linecap="round" stroke-linejoin="round" stroke="#000000" stroke-opacity="1" d="M 31.419,5.56372C 31.6046,5.56372 31.755,5.71411 31.755,5.89966C 31.755,6.08521 31.6046,6.2356 31.419,6.2356C 31.2335,6.2356 31.0831,6.08521 31.0831,5.89966C 31.0831,5.71411 31.2335,5.56372 31.419,5.56372 Z "/>
		<path fill="#230FD2" fill-opacity="0.803922" stroke-width="0.2" stroke-linecap="round" stroke-linejoin="round" stroke="#000000" stroke-opacity="1" d="M 5.18654,18.3253L 7.35446,17.8922L 7.38367,18.0383L 5.21573,18.4714L 5.18654,18.3253 Z "/>
		<g>
			<line fill="none" stroke-width="0.2" stroke-linecap="round" stroke-linejoin="round" x1="10.501" y1="4.57471" x2="12.812" y2="4.57471"/>
			<g>
				<path fill="#230FD2" fill-opacity="0.803922" stroke-width="0.2" stroke-linecap="round" stroke-linejoin="round" d="M 10.5011,4.50342C 10.5011,4.55103 10.4947,4.59985 10.5011,4.646C 10.5028,4.65869 10.5117,4.62793 10.517,4.6189C 10.5326,4.59241 10.5483,4.56604 10.5649,4.54138C 10.608,4.47705 10.6707,4.42017 10.726,4.4436C 10.762,4.45874 10.7939,4.49902 10.8221,4.54077C 10.864,4.60278 10.9005,4.6759 10.9437,4.73535C 10.9972,4.80884 11.0769,4.84937 11.1427,4.81812C 11.1949,4.79333 11.2357,4.71667 11.2714,4.646C 11.2714,4.59851 11.2772,4.5498 11.2714,4.50342C 11.2699,4.49121 11.2618,4.52197 11.2569,4.53125C 11.2428,4.55823 11.2285,4.58508 11.2132,4.61023C 11.1908,4.64722 11.1657,4.68237 11.1368,4.70142C 11.1112,4.71826 11.0814,4.72119 11.0547,4.71008C 11.0172,4.69446 10.9838,4.65356 10.954,4.61108C 10.8916,4.52246 10.8378,4.40491 10.7626,4.354C 10.7191,4.32471 10.6662,4.32275 10.6226,4.35181C 10.576,4.38281 10.538,4.44519 10.5011,4.50342 Z "/>
				<path fill="#230FD2" fill-opacity="0.803922" stroke-width="0.2" stroke-linecap="round" stroke-linejoin="round" d="M 11.2714,4.50342C 11.2714,4.55103 11.265,4.59985 11.2714,4.646C 11.2731,4.65869 11.282,4.62793 11.2873,4.6189C 11.3029,4.59241 11.3187,4.56604 11.3352,4.54138C 11.3784,4.47705 11.441,4.42017 11.4963,4.4436C 11.5323,4.45874 11.5642,4.49902 11.5924,4.54077C 11.6344,4.60278 11.6708,4.6759 11.7141,4.73535C 11.7675,4.80884 11.8472,4.84937 11.913,4.81812C 11.9653,4.79333 12.006,4.71667 12.0417,4.646C 12.0417,4.59851 12.0476,4.5498 12.0417,4.50342C 12.0402,4.49121 12.0321,4.52197 12.0273,4.53125C 12.0131,4.55823 11.9988,4.58508 11.9835,4.61023C 11.9611,4.64722 11.9361,4.68237 11.9072,4.70142C 11.8815,4.71826 11.8517,4.72119 11.825,4.71008C 11.7875,4.69446 11.7541,4.65356 11.7243,4.61108C 11.6619,4.52246 11.6081,4.40491 11.533,4.354C 11.4895,4.32471 11.4365,4.32275 11.393,4.35181C 11.3464,4.38281 11.3083,4.44519 11.2714,4.50342 Z "/>
				<path fill="#230FD2" fill-opacity="0.803922" stroke-width="0.2" stroke-linecap="round" stroke-linejoin="round" d="M 12.0417,4.50342C 12.0417,4.55103 12.0353,4.59985 12.0417,4.646C 12.0435,4.65869 12.0523,4.62793 12.0577,4.6189C 12.0733,4.59241 12.089,4.56604 12.1056,4.54138C 12.1487,4.47705 12.2114,4.42017 12.2666,4.4436C 12.3027,4.45874 12.3345,4.49902 12.3627,4.54077C 12.4047,4.60278 12.4412,4.6759 12.4844,4.73535C 12.5379,4.80884 12.6176,4.84937 12.6834,4.81812C 12.7356,4.79333 12.7763,4.71667 12.812,4.646C 12.812,4.59851 12.8179,4.5498 12.812,4.50342C 12.8105,4.49121 12.8024,4.52197 12.7976,4.53125C 12.7834,4.55823 12.7691,4.58508 12.7539,4.61023C 12.7315,4.64722 12.7064,4.68237 12.6775,4.70142C 12.6518,4.71826 12.622,4.72119 12.5953,4.71008C 12.5578,4.69446 12.5245,4.65356 12.4946,4.61108C 12.4323,4.52246 12.3784,4.40491 12.3033,4.354C 12.2598,4.32471 12.2069,4.32275 12.1633,4.35181C 12.1167,4.38281 12.0786,4.44519 12.0417,4.50342 Z "/>
				<path fill="#230FD2" fill-opacity="0.803922" stroke-width="0.2" stroke-linecap="round" stroke-linejoin="round" d="M 12.812,4.50342C 12.8034,4.52515 12.8065,4.55005 12.8065,4.57336C 12.8065,4.59766 12.8087,4.62207 12.812,4.646C 12.8123,4.64795 12.8152,4.64368 12.816,4.64197C 12.8381,4.59839 12.8648,4.5448 12.848,4.49878C 12.8451,4.49084 12.8346,4.48462 12.8262,4.48572C 12.8187,4.48669 12.8148,4.49634 12.812,4.50342 Z "/>
				<path fill="#230FD2" fill-opacity="0.803922" stroke-width="0.2" stroke-linecap="round" stroke-linejoin="round" d="M 10.5011,4.50342C 10.4808,4.53955 10.4577,4.5791 10.4589,4.62048C 10.4594,4.63696 10.4874,4.65515 10.5011,4.646L 10.5011,4.50342 Z "/>
			</g>
		</g>
		<path fill="#FFFF00" fill-opacity="0.803922" stroke-width="0.2" stroke-linecap="round" stroke-linejoin="round" stroke="#000000" stroke-opacity="1" d="M 37.3221,14.241L 37.1818,13.7175L 37.7053,13.5773L 37.8456,14.1007L 37.3221,14.241 Z "/>
		<path fill="#FFFF00" fill-opacity="0.803922" stroke-width="0.2" stroke-linecap="round" stroke-linejoin="round" stroke="#000000" stroke-opacity="1" d="M 13.5448,15.4269L 13.3034,16.3279L 14.2043,16.0864L 13.5448,15.4269 Z "/>
		<path fill="#FFFF00" fill-opacity="0.803922" stroke-width="0.2" stroke-linecap="round" stroke-linejoin="round" stroke="#000000" stroke-opacity="1" d="M 39.9445,1.5874C 39.9058,1.44287 39.9916,1.29431 40.1361,1.25562C 40.2807,1.2168 40.4293,1.30261 40.468,1.44727C 40.5067,1.5918 40.421,1.74036 40.2764,1.77905C 40.1319,1.81787 39.9833,1.73206 39.9445,1.5874 Z "/>
		<path fill="#FFFF00" fill-opacity="0.803922" stroke-width="0.2" stroke-linecap="round" stroke-linejoin="round" stroke="#000000" stroke-opacity="1" d="M 30.52,12.7635L 29.7301,11.165L 29.8378,11.1117L 30.6278,12.7103L 30.52,12.7635 Z "/>
		<g>
			<line fill="none" stroke-width="0.2" stroke-linecap="round" stroke-linejoin="round" x1="23.8324" y1="8.62366" x2="23.35" y2="6.82312"/>
			<g>
				<path fill="#FFFF00" fill-opacity="0.803922" stroke-width="0.2" stroke-linecap="round" stroke-linejoin="round" d="M 23.7769,8.63806C 23.8139,8.62817 23.8533,8.62292 23.888,8.60828C 23.8974,8.60425 23.8716,8.60376 23.8634,8.60156C 23.8396,8.59497 23.8158,8.58813 23.7931,8.58032C 23.734,8.56018 23.6766,8.52319 23.6833,8.47534C 23.6876,8.44409 23.7123,8.41089 23.7389,8.38013C 23.7786,8.33447 23.8279,8.29089 23.8651,8.24475C 23.9112,8.18774 23.9262,8.11719 23.8881,8.07251C 23.8579,8.03687 23.7897,8.02124 23.7272,8.00806C 23.6901,8.01807 23.651,8.02368 23.616,8.03784C 23.6069,8.04163 23.6325,8.0415 23.6407,8.04333C 23.6647,8.04883 23.6886,8.05432 23.7114,8.06091C 23.7448,8.07068 23.7775,8.08289 23.7983,8.10144C 23.8168,8.11792 23.8253,8.1405 23.8223,8.16357C 23.818,8.19604 23.7931,8.23059 23.7662,8.2627C 23.7101,8.32983 23.6298,8.39624 23.6059,8.46545C 23.592,8.50549 23.6017,8.54712 23.6334,8.57495C 23.6673,8.60486 23.7238,8.62146 23.7769,8.63806 Z "/>
				<path fill="#FFFF00" fill-opacity="0.803922" stroke-width="0.2" stroke-linecap="round" stroke-linejoin="round" d="M 23.616,8.03784C 23.6531,8.02795 23.6925,8.02271 23.7272,8.00806C 23.7366,8.00415 23.7108,8.00366 23.7026,8.00146C 23.6788,7.99475 23.655,7.98804 23.6323,7.98022C 23.5732,7.95996 23.5158,7.9231 23.5225,7.87524C 23.5268,7.84399 23.5515,7.81067 23.5781,7.78003C 23.6177,7.73438 23.6671,7.69067 23.7043,7.64453C 23.7504,7.58765 23.7653,7.51709 23.7273,7.47229C 23.6971,7.43677 23.6289,7.42102 23.5664,7.40796C 23.5293,7.41797 23.4902,7.42346 23.4552,7.43774C 23.4461,7.44153 23.4717,7.44141 23.4799,7.44324C 23.5039,7.44861 23.5278,7.4541 23.5506,7.46082C 23.584,7.47046 23.6167,7.48267 23.6375,7.50122C 23.656,7.5177 23.6645,7.54028 23.6615,7.56348C 23.6572,7.59595 23.6323,7.63049 23.6054,7.6626C 23.5493,7.72974 23.469,7.79614 23.4451,7.86523C 23.4312,7.90527 23.4409,7.94702 23.4726,7.97485C 23.5065,8.00464 23.563,8.02124 23.616,8.03784 Z "/>
				<path fill="#FFFF00" fill-opacity="0.803922" stroke-width="0.2" stroke-linecap="round" stroke-linejoin="round" d="M 23.4552,7.43774C 23.4923,7.42786 23.5317,7.42261 23.5664,7.40796C 23.5758,7.40405 23.55,7.40356 23.5418,7.40125C 23.518,7.39453 23.4942,7.38782 23.4715,7.38013C 23.4124,7.35986 23.355,7.323 23.3616,7.27502C 23.366,7.24377 23.3907,7.21057 23.4173,7.17981C 23.4569,7.13416 23.5062,7.09058 23.5435,7.04443C 23.5896,6.98743 23.6045,6.91687 23.5665,6.87207C 23.5363,6.83667 23.468,6.82092 23.4055,6.80786C 23.3685,6.81775 23.3294,6.82336 23.2944,6.83765C 23.2852,6.84131 23.3109,6.84119 23.3191,6.84302C 23.3431,6.84839 23.367,6.854 23.3898,6.8606C 23.4232,6.87036 23.4559,6.88257 23.4767,6.90112C 23.4952,6.9176 23.5037,6.94019 23.5006,6.96326C 23.4963,6.99573 23.4715,7.03027 23.4446,7.06238C 23.3885,7.12952 23.3082,7.19592 23.2843,7.26514C 23.2704,7.30518 23.2801,7.3468 23.3118,7.37476C 23.3457,7.40454 23.4022,7.42114 23.4552,7.43774 Z "/>
				<path fill="#FFFF00" fill-opacity="0.803922" stroke-width="0.2" stroke-linecap="round" stroke-linejoin="round" d="M 23.2944,6.83765C 23.3132,6.83972 23.3319,6.83228 23.3501,6.82739C 23.369,6.82227 23.3875,6.81543 23.4055,6.80786C 23.407,6.80725 23.403,6.80591 23.4016,6.80554C 23.3629,6.79749 23.3156,6.78784 23.2833,6.81055C 23.2777,6.81445 23.2751,6.82397 23.2777,6.83032C 23.28,6.83594 23.2884,6.83691 23.2944,6.83765 Z "/>
				<path fill="#FFFF00" fill-opacity="0.803922" stroke-width="0.2" stroke-linecap="round" stroke-linejoin="round" d="M 23.7769,8.63806C 23.8093,8.64624 23.8448,8.65601 23.8769,8.64648C 23.8896,8.64258 23.8979,8.61707 23.888,8.60828L 23.7769,8.63806 Z "/>
			</g>
		</g>
		<rect x="22.1358" y="3.7146" fill="#FF0000" fill-opacity="0.803922" stroke-width="0.2" stroke-linecap="round" stroke-linejoin="round" stroke="#000000" stroke-opacity="1" width="0.686554" height="0.686523"/>
		<path fill="#FF0000" fill-opacity="0.803922" stroke-width="0.2" stroke-linecap="round" stroke-linejoin="round" stroke="#000000" stroke-opacity="1" d="M 38.8917,6.1803L 38.3009,7.20349L 39.4825,7.20349L 38.8917,6.1803 Z "/>
		<path fill="#FF0000" fill-opacity="0.803922" stroke-width="0.2" stroke-linecap="round" stroke-linejoin="round" stroke="#000000" stroke-opacity="1" d="M 7.83894,15.1536C 7.83894,14.9641 7.99263,14.8103 8.18222,14.8103C 8.3718,14.8103 8.52548,14.9641 8.52548,15.1536C 8.52548,15.3433 8.3718,15.4968 8.18222,15.4968C 7.99263,15.4968 7.83894,15.3433 7.83894,15.1536 Z "/>
		<path fill="#FF0000" fill-opacity="0.803922" stroke-width="0.2" stroke-linecap="round" stroke-linejoin="round" stroke="#000000" stroke-opacity="1" d="M 29.1255,18.9047L 28.683,16.6895L 28.8323,16.6597L 29.2748,18.8749L 29.1255,18.9047 Z "/>
		<g>
			<line fill="none" stroke-width="0.2" stroke-linecap="round" stroke-linejoin="round" x1="14.9086" y1="14.7424" x2="14.9086" y2="12.3811"/>
			<g>
				<path fill="#FF0000" fill-opacity="0.803922" stroke-width="0.2" stroke-linecap="round" stroke-linejoin="round" d="M 14.8358,14.7427C 14.8843,14.7427 14.9343,14.7491 14.9815,14.7427C 14.9944,14.7408 14.9629,14.7318 14.9537,14.7263C 14.9267,14.7104 14.8998,14.6943 14.8746,14.6774C 14.8089,14.6333 14.7507,14.5693 14.7746,14.5128C 14.7901,14.4761 14.8312,14.4435 14.8739,14.4146C 14.9373,14.3718 15.012,14.3345 15.0727,14.2903C 15.1478,14.2356 15.1892,14.1543 15.1573,14.087C 15.132,14.0337 15.0537,13.9919 14.9815,13.9556C 14.9329,13.9556 14.8832,13.9496 14.8358,13.9556C 14.8233,13.957 14.8547,13.9653 14.8642,13.9702C 14.8917,13.9847 14.9192,13.9994 14.9449,14.0149C 14.9826,14.0378 15.0186,14.0635 15.038,14.093C 15.0552,14.1193 15.0582,14.1497 15.0469,14.177C 15.031,14.2153 14.9892,14.2494 14.9458,14.2798C 14.8551,14.3435 14.7351,14.3986 14.6832,14.4753C 14.6531,14.5198 14.6512,14.574 14.6809,14.6184C 14.7126,14.666 14.7763,14.7048 14.8358,14.7427 Z "/>
				<path fill="#FF0000" fill-opacity="0.803922" stroke-width="0.2" stroke-linecap="round" stroke-linejoin="round" d="M 14.8358,13.9556C 14.8843,13.9556 14.9343,13.962 14.9815,13.9556C 14.9944,13.9537 14.9629,13.9447 14.9537,13.9392C 14.9267,13.9233 14.8998,13.9072 14.8746,13.8903C 14.8089,13.8462 14.7507,13.7822 14.7746,13.7257C 14.7901,13.689 14.8312,13.6563 14.8739,13.6274C 14.9373,13.5846 15.012,13.5474 15.0727,13.5032C 15.1478,13.4485 15.1892,13.3671 15.1573,13.2998C 15.132,13.2465 15.0537,13.2048 14.9815,13.1685C 14.9329,13.1685 14.8832,13.1624 14.8358,13.1685C 14.8233,13.1699 14.8547,13.1782 14.8642,13.1831C 14.8917,13.1976 14.9192,13.2123 14.9449,13.2278C 14.9826,13.2507 15.0186,13.2764 15.038,13.3059C 15.0552,13.332 15.0582,13.3625 15.0469,13.3899C 15.031,13.4282 14.9892,13.4623 14.9458,13.4927C 14.8551,13.5564 14.7351,13.6115 14.6832,13.6882C 14.6531,13.7327 14.6512,13.7867 14.6809,13.8313C 14.7126,13.8789 14.7763,13.9177 14.8358,13.9556 Z "/>
				<path fill="#FF0000" fill-opacity="0.803922" stroke-width="0.2" stroke-linecap="round" stroke-linejoin="round" d="M 14.8358,13.1685C 14.8843,13.1685 14.9343,13.1749 14.9815,13.1685C 14.9944,13.1666 14.9629,13.1575 14.9537,13.1521C 14.9267,13.1361 14.8998,13.1201 14.8746,13.1031C 14.8089,13.0591 14.7507,12.9951 14.7746,12.9386C 14.7901,12.9017 14.8312,12.8691 14.8739,12.8403C 14.9373,12.7975 15.012,12.7603 15.0727,12.7161C 15.1478,12.6614 15.1892,12.58 15.1573,12.5127C 15.132,12.4594 15.0537,12.4177 14.9815,12.3813C 14.9329,12.3813 14.8832,12.3752 14.8358,12.3813C 14.8233,12.3828 14.8547,12.3911 14.8642,12.396C 14.8917,12.4105 14.9192,12.425 14.9449,12.4407C 14.9826,12.4636 15.0186,12.4893 15.038,12.5188C 15.0552,12.5449 15.0582,12.5754 15.0469,12.6027C 15.031,12.641 14.9892,12.675 14.9458,12.7056C 14.8551,12.7693 14.7351,12.8243 14.6832,12.9011C 14.6531,12.9456 14.6512,12.9996 14.6809,13.0442C 14.7126,13.0918 14.7763,13.1306 14.8358,13.1685 Z "/>
				<path fill="#FF0000" fill-opacity="0.803922" stroke-width="0.2" stroke-linecap="round" stroke-linejoin="round" d="M 14.8358,12.3813C 14.858,12.3901 14.8833,12.387 14.9072,12.387C 14.9321,12.387 14.9569,12.3848 14.9815,12.3813C 14.9834,12.381 14.9791,12.3781 14.9774,12.3772C 14.9328,12.3546 14.878,12.3274 14.8311,12.3445C 14.8229,12.3474 14.8166,12.3582 14.8177,12.3668C 14.8187,12.3745 14.8286,12.3784 14.8358,12.3813 Z "/>
				<path fill="#FF0000" fill-opacity="0.803922" stroke-width="0.2" stroke-linecap="round" stroke-linejoin="round" d="M 14.8358,14.7427C 14.8727,14.7633 14.913,14.787 14.9554,14.7856C 14.9722,14.7852 14.9908,14.7566 14.9815,14.7427L 14.8358,14.7427 Z "/>
			</g>
		</g>
		<path fill="#230FD2" fill-opacity="0.803922" stroke-width="0.2" stroke-linecap="round" stroke-linejoin="round" stroke="#000000" stroke-opacity="1" d="M 3.98071,9.02148L 4.35596,8.64624L 4.7312,9.02148L 4.35596,9.39673L 3.98071,9.02148 Z "/>
		<path fill="#230FD2" fill-opacity="0.803922" stroke-width="0.2" stroke-linecap="round" stroke-linejoin="round" stroke="#000000" stroke-opacity="1" d="M 41.8123,8.02954L 40.9301,8.26587L 41.5759,8.91174L 41.8123,8.02954 Z "/>
		<path fill="#230FD2" fill-opacity="0.803922" stroke-width="0.2" stroke-linecap="round" stroke-linejoin="round" stroke="#000000" stroke-opacity="1" d="M 0.0159912,9.9563C 0.119598,9.85278 0.287613,9.85278 0.391235,9.9563C 0.494843,10.0599 0.494843,10.228 0.391235,10.3315C 0.287613,10.4352 0.119598,10.4352 0.0159912,10.3315C -0.0876312,10.228 -0.0876312,10.0599 0.0159912,9.9563 Z "/>
		<path fill="#230FD2" fill-opacity="0.803922" stroke-width="0.2" stroke-linecap="round" stroke-linejoin="round" stroke="#000000" stroke-opacity="1" d="M 17.564,8.92542L 18.4371,7.41333L 18.539,7.47217L 17.666,8.98425L 17.564,8.92542 Z "/>
		<g>
			<line fill="none" stroke-width="0.2" stroke-linecap="round" stroke-linejoin="round" x1="25.7447" y1="17.3962" x2="27.0354" y2="16.1055"/>
			<g>
				<path fill="#230FD2" fill-opacity="0.803922" stroke-width="0.2" stroke-linecap="round" stroke-linejoin="round" d="M 25.7048,17.3566C 25.7314,17.3832 25.7551,17.4141 25.7845,17.4363C 25.7925,17.4424 25.7803,17.4202 25.7782,17.4121C 25.7722,17.3887 25.7662,17.3652 25.7617,17.3422C 25.7499,17.2821 25.7531,17.2153 25.797,17.1975C 25.8256,17.1859 25.8659,17.1906 25.905,17.1981C 25.9631,17.2095 26.0243,17.2299 26.0816,17.2389C 26.1525,17.25 26.2197,17.2281 26.239,17.1741C 26.2543,17.131 26.2342,17.0654 26.2147,17.0061C 26.1882,16.9795 26.1643,16.949 26.1351,16.9264C 26.1274,16.9204 26.1401,16.9421 26.1425,16.95C 26.1497,16.9729 26.1567,16.996 26.1622,17.0186C 26.1703,17.0516 26.176,17.0853 26.1705,17.1121C 26.1655,17.1357 26.1505,17.1541 26.1295,17.1628C 26.0998,17.175 26.0583,17.1709 26.018,17.1638C 25.9336,17.149 25.8379,17.1135 25.7675,17.1271C 25.7268,17.135 25.6962,17.1636 25.6881,17.2041C 25.6794,17.2473 25.6929,17.3035 25.7048,17.3566 Z "/>
				<path fill="#230FD2" fill-opacity="0.803922" stroke-width="0.2" stroke-linecap="round" stroke-linejoin="round" d="M 26.1351,16.9264C 26.1616,16.9529 26.1853,16.9838 26.2147,17.0061C 26.2227,17.0121 26.2105,16.99 26.2084,16.9819C 26.2024,16.9585 26.1965,16.9349 26.1919,16.9119C 26.1801,16.8519 26.1833,16.7852 26.2272,16.7673C 26.2559,16.7557 26.2961,16.7604 26.3352,16.7679C 26.3933,16.7792 26.4545,16.7996 26.5118,16.8086C 26.5827,16.8198 26.6499,16.798 26.6692,16.7438C 26.6845,16.7008 26.6645,16.6353 26.645,16.5758C 26.6184,16.5493 26.5945,16.5188 26.5653,16.4961C 26.5576,16.4902 26.5703,16.512 26.5727,16.5198C 26.5799,16.5427 26.5869,16.5657 26.5924,16.5883C 26.6005,16.6215 26.6062,16.655 26.6007,16.6819C 26.5958,16.7056 26.5808,16.7239 26.5597,16.7327C 26.53,16.7449 26.4885,16.7406 26.4482,16.7336C 26.3638,16.7189 26.2681,16.6833 26.1978,16.6969C 26.157,16.7047 26.1264,16.7333 26.1183,16.7738C 26.1096,16.8171 26.1232,16.8733 26.1351,16.9264 Z "/>
				<path fill="#230FD2" fill-opacity="0.803922" stroke-width="0.2" stroke-linecap="round" stroke-linejoin="round" d="M 26.5653,16.4961C 26.5918,16.5227 26.6156,16.5536 26.645,16.5758C 26.653,16.5819 26.6407,16.5597 26.6386,16.5518C 26.6326,16.5282 26.6267,16.5048 26.6221,16.4817C 26.6104,16.4216 26.6136,16.355 26.6575,16.3372C 26.6861,16.3254 26.7263,16.3301 26.7654,16.3376C 26.8235,16.349 26.8847,16.3694 26.942,16.3784C 27.0129,16.3896 27.0801,16.3677 27.0994,16.3136C 27.1148,16.2705 27.0947,16.205 27.0752,16.1456C 27.0486,16.119 27.0247,16.0886 26.9955,16.0659C 26.9879,16.0599 27.0005,16.0817 27.0029,16.0895C 27.0101,16.1125 27.0172,16.1355 27.0227,16.1581C 27.0308,16.1912 27.0365,16.2249 27.0309,16.2516C 27.026,16.2754 27.011,16.2937 26.9899,16.3024C 26.9602,16.3146 26.9188,16.3104 26.8784,16.3033C 26.794,16.2886 26.6983,16.2531 26.628,16.2666C 26.5872,16.2745 26.5567,16.3031 26.5485,16.3436C 26.5398,16.387 26.5534,16.443 26.5653,16.4961 Z "/>
				<path fill="#230FD2" fill-opacity="0.803922" stroke-width="0.2" stroke-linecap="round" stroke-linejoin="round" d="M 26.9955,16.0659C 27.0028,16.0829 27.0184,16.0951 27.0315,16.1082C 27.045,16.1217 27.0599,16.134 27.0752,16.1456C 27.0764,16.1465 27.0756,16.1426 27.0751,16.1411C 27.0631,16.1044 27.048,16.0596 27.013,16.0432C 27.007,16.0404 26.9976,16.0428 26.9935,16.0482C 26.9899,16.0529 26.9931,16.0604 26.9955,16.0659 Z "/>
				<path fill="#230FD2" fill-opacity="0.803922" stroke-width="0.2" stroke-linecap="round" stroke-linejoin="round" d="M 25.7048,17.3566C 25.7137,17.3882 25.7229,17.4231 25.7467,17.4456C 25.7562,17.4543 25.782,17.449 25.7845,17.4363L 25.7048,17.3566 Z "/>
			</g>
		</g>
	</g>
</svg>
