<?xml version="1.0" encoding="utf-8"?> <!DOCTYPE svg PUBLIC "-//W3C//DTD SVG 1.1//EN" "http://www.w3.org/Graphics/SVG/1.1/DTD/svg11.dtd"> <svg xmlns="http://www.w3.org/2000/svg" xmlns:xlink="http://www.w3.org/1999/xlink" version="1.1" baseProfile="full" width="620" height="294.133" viewBox="0 0 620.00 294.13" enable-background="new 0 0 620.00 294.13" xml:space="preserve"> <g> <path fill="#FFFF00" fill-opacity="0.803922" fill-rule="evenodd" stroke-width="0.2" stroke-linecap="round" stroke-linejoin="round" stroke="#000000" stroke-opacity="1" d="M 594.305,161.356L 598.737,153.68L 606.412,158.112L 601.981,165.787L 594.305,161.356 Z "/> <path fill="#FFFF00" fill-opacity="0.803922" stroke-width="0.2" stroke-linecap="round" stroke-linejoin="round" stroke="#000000" stroke-opacity="1" d="M 149.673,137.757L 136.464,145.383L 149.673,153.01L 149.673,137.757 Z "/> <path fill="#FFFF00" fill-opacity="0.803922" stroke-width="0.2" stroke-linecap="round" stroke-linejoin="round" stroke="#000000" stroke-opacity="1" d="M 57.7607,52.3529C 58.9843,50.2334 61.6945,49.5072 63.814,50.7309C 65.9335,51.9546 66.6597,54.6648 65.436,56.7843C 64.2124,58.9037 61.5022,59.63 59.3827,58.4063C 57.2632,57.1825 56.537,54.4723 57.7607,52.3529 Z "/> <path fill="#FFFF00" fill-opacity="0.803922" stroke-width="0.2" stroke-linecap="round" stroke-linejoin="round" stroke="#000000" stroke-opacity="1" d="M 566.414,38.942L 587.034,18.3221L 588.423,19.7119L 567.803,40.3318L 566.414,38.942 Z "/> <g> <line fill="none" stroke-width="0.2" stroke-linecap="round" stroke-linejoin="round" x1="34.1443" y1="109.33" x2="49.386" y2="82.931"/> <g> <path fill="#FFFF00" fill-opacity="0.803922" stroke-width="0.2" stroke-linecap="round" stroke-linejoin="round" d="M 33.3295,108.86C 33.8727,109.174 34.3887,109.569 34.9591,109.801C 35.1143,109.864 34.8212,109.56 34.7532,109.439C 34.554,109.086 34.3571,108.733 34.1845,108.381C 33.7345,107.464 33.4978,106.373 34.1291,105.896C 34.5406,105.585 35.2102,105.486 35.8732,105.439C 36.8595,105.369 37.9346,105.435 38.8983,105.333C 40.09,105.206 41.0792,104.563 41.1567,103.606C 41.2182,102.846 40.611,101.875 40.0396,101.001C 39.4964,100.687 38.9793,100.3 38.4101,100.06C 38.2607,99.9973 38.5587,100.292 38.6322,100.409C 38.8472,100.748 39.0598,101.089 39.2464,101.429C 39.5204,101.929 39.7577,102.448 39.7838,102.903C 39.8069,103.307 39.644,103.667 39.3414,103.899C 38.916,104.224 38.2289,104.336 37.5473,104.397C 36.1221,104.524 34.4253,104.364 33.3488,104.887C 32.7258,105.189 32.3558,105.782 32.3998,106.472C 32.4469,107.208 32.908,108.054 33.3295,108.86 Z "/> <path fill="#FFFF00" fill-opacity="0.803922" stroke-width="0.2" stroke-linecap="round" stroke-linejoin="round" d="M 38.4101,100.06C 38.9532,100.374 39.4693,100.769 40.0396,101.001C 40.1949,101.064 39.9018,100.76 39.8337,100.639C 39.6346,100.286 39.4376,99.9332 39.265,99.5814C 38.8151,98.6643 38.5783,97.5735 39.2097,97.0961C 39.6212,96.785 40.2907,96.6861 40.9538,96.6393C 41.94,96.5696 43.0152,96.635 43.9789,96.5327C 45.1706,96.4061 46.1598,95.7634 46.2373,94.8062C 46.2988,94.046 45.6916,93.0751 45.1202,92.2012C 44.577,91.8877 44.0598,91.5001 43.4906,91.2604C 43.3413,91.1976 43.6393,91.4926 43.7127,91.6088C 43.9277,91.9486 44.1404,92.2892 44.327,92.6294C 44.601,93.1288 44.8383,93.6477 44.8643,94.1029C 44.8874,94.5072 44.7245,94.8671 44.422,95.0988C 43.9966,95.4246 43.3094,95.536 42.6279,95.5968C 41.2027,95.724 39.5059,95.5639 38.4293,96.087C 37.8064,96.3897 37.4363,96.9827 37.4804,97.6719C 37.5275,98.4086 37.9886,99.2543 38.4101,100.06 Z "/> <path fill="#FFFF00" fill-opacity="0.803922" stroke-width="0.2" stroke-linecap="round" stroke-linejoin="round" d="M 43.4906,91.2604C 44.0338,91.5741 44.5498,91.9693 45.1202,92.2012C 45.2754,92.2644 44.9824,91.96 44.9143,91.8394C 44.7151,91.4866 44.5182,91.1334 44.3456,90.7816C 43.8956,89.8645 43.6589,88.7737 44.2902,88.2963C 44.7018,87.9852 45.3713,87.8864 46.0343,87.8395C 47.0206,87.7699 48.0957,87.8352 49.0594,87.7329C 50.2511,87.6063 51.2403,86.9636 51.3178,86.0064C 51.3794,85.2462 50.7722,84.2753 50.2008,83.4015C 49.6576,83.0879 49.1404,82.7003 48.5712,82.4606C 48.4218,82.3978 48.7198,82.6929 48.7933,82.809C 49.0083,83.1489 49.2209,83.4895 49.4075,83.8296C 49.6815,84.329 49.9188,84.8479 49.9449,85.3031C 49.968,85.7074 49.8051,86.0673 49.5025,86.2991C 49.0771,86.6248 48.39,86.7362 47.7084,86.797C 46.2832,86.9242 44.5864,86.7642 43.5099,87.2872C 42.887,87.5899 42.5169,88.1829 42.5609,88.8721C 42.608,89.6088 43.0691,90.4545 43.4906,91.2604 Z "/> <path fill="#FFFF00" fill-opacity="0.803922" stroke-width="0.2" stroke-linecap="round" stroke-linejoin="round" d="M 48.5712,82.4606C 48.7628,82.7025 49.0663,82.8316 49.3336,82.9859C 49.6112,83.1461 49.9037,83.281 50.2008,83.4015C 50.2239,83.4109 50.1942,83.3502 50.1805,83.3292C 49.828,82.7891 49.3914,82.1312 48.7561,82.0194C 48.6458,81.9999 48.5059,82.0796 48.4626,82.1829C 48.4242,82.2746 48.5094,82.3827 48.5712,82.4606 Z "/> <path fill="#FFFF00" fill-opacity="0.803922" stroke-width="0.2" stroke-linecap="round" stroke-linejoin="round" d="M 33.3295,108.86C 33.6094,109.33 33.9073,109.855 34.3894,110.114C 34.5802,110.216 34.9729,110.017 34.9591,109.801L 33.3295,108.86 Z "/> </g> </g> <path fill="#FF0000" fill-opacity="0.803922" stroke-width="0.2" stroke-linecap="round" stroke-linejoin="round" stroke="#000000" stroke-opacity="1" d="M 265.803,249.2L 273.742,241.261L 281.681,249.2L 273.742,257.139L 265.803,249.2 Z "/> <path fill="#FF0000" fill-opacity="0.803922" stroke-width="0.2" stroke-linecap="round" stroke-linejoin="round" stroke="#000000" stroke-opacity="1" d="M 231.785,58.136L 222.124,74.8701L 241.447,74.8701L 231.785,58.136 Z "/> <path fill="#FF0000" fill-opacity="0.803922" stroke-width="0.2" stroke-linecap="round" stroke-linejoin="round" stroke="#000000" stroke-opacity="1" d="M 336.798,171.245C 338.991,169.053 342.545,169.053 344.738,171.245C 346.93,173.438 346.93,176.992 344.738,179.184C 342.545,181.377 338.991,181.377 336.798,179.184C 334.606,176.992 334.606,173.438 336.798,171.245 Z "/> <path fill="#FF0000" fill-opacity="0.803922" stroke-width="0.2" stroke-linecap="round" stroke-linejoin="round" stroke="#000000" stroke-opacity="1" d="M 472.27,216.261L 492.769,185.528L 494.84,186.91L 474.341,217.643L 472.27,216.261 Z "/> <g> <line fill="none" stroke-width="0.2" stroke-linecap="round" stroke-linejoin="round" x1="437.706" y1="54.9129" x2="465.013" y2="27.6063"/> <g> <path fill="#FF0000" fill-opacity="0.803922" stroke-width="0.2" stroke-linecap="round" stroke-linejoin="round" d="M 436.863,54.0704C 437.425,54.6322 437.927,55.2852 438.549,55.756C 438.718,55.8841 438.459,55.4156 438.415,55.2457C 438.287,54.7487 438.162,54.252 438.066,53.7648C 437.816,52.495 437.884,51.0826 438.813,50.7055C 439.419,50.4597 440.271,50.5584 441.097,50.7183C 442.327,50.9564 443.621,51.389 444.834,51.5797C 446.334,51.8158 447.755,51.3536 448.164,50.2075C 448.488,49.2976 448.063,47.9104 447.651,46.6538C 447.089,46.0919 446.583,45.4481 445.965,44.9682C 445.803,44.8423 446.071,45.3011 446.123,45.4673C 446.274,45.9537 446.423,46.4402 446.54,46.9176C 446.711,47.6185 446.832,48.3313 446.714,48.8969C 446.61,49.3991 446.293,49.7861 445.846,49.9705C 445.219,50.2296 444.342,50.1407 443.488,49.9917C 441.702,49.68 439.678,48.9277 438.189,49.2149C 437.328,49.381 436.681,49.9852 436.508,50.843C 436.325,51.76 436.611,52.9461 436.863,54.0704 Z "/> <path fill="#FF0000" fill-opacity="0.803922" stroke-width="0.2" stroke-linecap="round" stroke-linejoin="round" d="M 445.965,44.9682C 446.527,45.53 447.029,46.1829 447.651,46.6538C 447.82,46.782 447.561,46.3135 447.517,46.1436C 447.389,45.6466 447.264,45.1497 447.168,44.6627C 446.918,43.3929 446.986,41.9804 447.916,41.6033C 448.521,41.3575 449.373,41.4561 450.199,41.6162C 451.429,41.8543 452.723,42.2869 453.936,42.4776C 455.436,42.7135 456.857,42.2514 457.266,41.1053C 457.59,40.1954 457.166,38.8082 456.753,37.5516C 456.191,36.9898 455.685,36.346 455.067,35.866C 454.905,35.7401 455.173,36.1989 455.225,36.3651C 455.377,36.8516 455.525,37.338 455.642,37.8154C 455.813,38.5164 455.934,39.2291 455.816,39.7947C 455.712,40.2969 455.395,40.684 454.948,40.8683C 454.321,41.1275 453.444,41.0386 452.59,40.8895C 450.804,40.5778 448.78,39.8255 447.292,40.1126C 446.43,40.2788 445.783,40.8831 445.611,41.7408C 445.427,42.6578 445.714,43.8439 445.965,44.9682 Z "/> <path fill="#FF0000" fill-opacity="0.803922" stroke-width="0.2" stroke-linecap="round" stroke-linejoin="round" d="M 455.067,35.866C 455.629,36.4279 456.131,37.0807 456.753,37.5516C 456.922,37.6798 456.663,37.2113 456.62,37.0413C 456.492,36.5443 456.366,36.0475 456.271,35.5604C 456.021,34.2907 456.089,32.8783 457.018,32.5011C 457.623,32.2554 458.475,32.3539 459.302,32.514C 460.531,32.7521 461.826,33.1846 463.038,33.3754C 464.538,33.6113 465.959,33.1492 466.368,32.0032C 466.693,31.0932 466.268,29.7061 465.855,28.4494C 465.293,27.8875 464.788,27.2437 464.17,26.7638C 464.007,26.638 464.275,27.0968 464.327,27.263C 464.479,27.7493 464.627,28.2359 464.744,28.7132C 464.916,29.4141 465.036,30.127 464.919,30.6925C 464.814,31.1947 464.497,31.5818 464.051,31.7661C 463.423,32.0252 462.546,31.9364 461.692,31.7872C 459.906,31.4756 457.883,30.7233 456.394,31.0105C 455.532,31.1766 454.885,31.7808 454.713,32.6386C 454.529,33.5556 454.816,34.7417 455.067,35.866 Z "/> <path fill="#FF0000" fill-opacity="0.803922" stroke-width="0.2" stroke-linecap="round" stroke-linejoin="round" d="M 464.17,26.7638C 464.325,27.1226 464.654,27.38 464.93,27.6565C 465.217,27.9436 465.531,28.2046 465.855,28.4494C 465.88,28.4685 465.864,28.3845 465.854,28.3544C 465.6,27.5778 465.281,26.6297 464.541,26.2845C 464.412,26.2245 464.215,26.2761 464.128,26.3883C 464.051,26.4879 464.12,26.6483 464.17,26.7638 Z "/> <path fill="#FF0000" fill-opacity="0.803922" stroke-width="0.2" stroke-linecap="round" stroke-linejoin="round" d="M 436.863,54.0704C 437.051,54.7374 437.244,55.4768 437.749,55.9517C 437.949,56.1397 438.495,56.025 438.549,55.756L 436.863,54.0704 Z "/> </g> </g> <rect x="376.387" y="42.21" fill="#230FD2" fill-opacity="0.803922" stroke-width="0.2" stroke-linecap="round" stroke-linejoin="round" stroke="#000000" stroke-opacity="1" width="8.67868" height="8.67871"/> <path fill="#230FD2" fill-opacity="0.803922" stroke-width="0.2" stroke-linecap="round" stroke-linejoin="round" stroke="#000000" stroke-opacity="1" d="M 300.499,208.919L 287.564,201.45L 287.564,216.387L 300.499,208.919 Z "/> <ellipse fill="#230FD2" fill-opacity="0.803922" stroke-width="0.2" stroke-linecap="round" stroke-linejoin="round" stroke="#000000" stroke-opacity="1" cx="426.287" cy="94.3179" rx="4.33934" ry="4.33936"/> <path fill="#230FD2" fill-opacity="0.803922" stroke-width="0.2" stroke-linecap="round" stroke-linejoin="round" stroke="#000000" stroke-opacity="1" d="M 87.454,254.814L 115.456,249.221L 115.833,251.109L 87.831,256.702L 87.454,254.814 Z "/> <g> <line fill="none" stroke-width="0.2" stroke-linecap="round" stroke-linejoin="round" x1="156.099" y1="77.2047" x2="185.949" y2="77.2047"/> <g> <path fill="#230FD2" fill-opacity="0.803922" stroke-width="0.2" stroke-linecap="round" stroke-linejoin="round" d="M 156.099,76.2835C 156.099,76.8976 156.017,77.5288 156.099,78.1261C 156.122,78.2886 156.236,77.891 156.305,77.7742C 156.507,77.4326 156.71,77.0927 156.924,76.7741C 157.481,75.9434 158.29,75.2086 159.004,75.5103C 159.47,75.7069 159.881,76.2263 160.246,76.7657C 160.788,77.5679 161.259,78.5117 161.817,79.2789C 162.508,80.2276 163.537,80.7517 164.387,80.3487C 165.062,80.0287 165.588,79.0384 166.049,78.1261C 166.049,77.5118 166.125,76.8836 166.049,76.2835C 166.029,76.126 165.925,76.5232 165.863,76.6424C 165.68,76.9911 165.495,77.3382 165.298,77.663C 165.008,78.1398 164.685,78.5951 164.311,78.8401C 163.98,79.0576 163.595,79.0957 163.25,78.9525C 162.766,78.7513 162.335,78.2232 161.949,77.6749C 161.144,76.5286 160.449,75.0113 159.478,74.3545C 158.916,73.9744 158.232,73.9508 157.669,74.3257C 157.068,74.7263 156.576,75.5314 156.099,76.2835 Z "/> <path fill="#230FD2" fill-opacity="0.803922" stroke-width="0.2" stroke-linecap="round" stroke-linejoin="round" d="M 166.049,76.2835C 166.049,76.8976 165.967,77.5287 166.049,78.1261C 166.072,78.2886 166.186,77.891 166.255,77.7742C 166.457,77.4326 166.66,77.0927 166.874,76.7741C 167.431,75.9434 168.24,75.2086 168.954,75.5103C 169.42,75.7069 169.831,76.2263 170.196,76.7657C 170.738,77.5679 171.209,78.5117 171.767,79.2789C 172.458,80.2276 173.487,80.7517 174.337,80.3487C 175.012,80.0287 175.538,79.0385 175.999,78.1261C 175.999,77.5118 176.075,76.8836 175.999,76.2835C 175.979,76.126 175.875,76.5232 175.813,76.6424C 175.63,76.9911 175.445,77.3382 175.248,77.663C 174.958,78.1398 174.635,78.5951 174.261,78.8401C 173.93,79.0576 173.545,79.0957 173.2,78.9525C 172.716,78.7513 172.285,78.2232 171.899,77.6749C 171.094,76.5286 170.399,75.0113 169.428,74.3545C 168.866,73.9744 168.182,73.9508 167.619,74.3257C 167.018,74.7263 166.526,75.5314 166.049,76.2835 Z "/> <path fill="#230FD2" fill-opacity="0.803922" stroke-width="0.2" stroke-linecap="round" stroke-linejoin="round" d="M 175.999,76.2835C 175.999,76.8976 175.917,77.5288 175.999,78.1261C 176.022,78.2886 176.136,77.891 176.205,77.7742C 176.407,77.4326 176.61,77.0927 176.824,76.7741C 177.381,75.9434 178.191,75.2086 178.904,75.5103C 179.37,75.7069 179.781,76.2263 180.146,76.7657C 180.688,77.5679 181.159,78.5117 181.717,79.2789C 182.408,80.2276 183.437,80.7517 184.287,80.3487C 184.962,80.0287 185.488,79.0385 185.949,78.1261C 185.949,77.5118 186.025,76.8836 185.949,76.2835C 185.929,76.126 185.825,76.5232 185.763,76.6424C 185.58,76.9911 185.395,77.3382 185.198,77.663C 184.908,78.1398 184.585,78.5951 184.211,78.8401C 183.88,79.0576 183.495,79.0957 183.15,78.9525C 182.666,78.7513 182.235,78.2232 181.849,77.6749C 181.044,76.5286 180.349,75.0113 179.378,74.3545C 178.816,73.9744 178.132,73.9508 177.57,74.3257C 176.968,74.7263 176.476,75.5314 175.999,76.2835 Z "/> <path fill="#230FD2" fill-opacity="0.803922" stroke-width="0.2" stroke-linecap="round" stroke-linejoin="round" d="M 185.949,76.2835C 185.838,76.5643 185.877,76.8849 185.877,77.1871C 185.877,77.5011 185.906,77.8152 185.949,78.1261C 185.953,78.1503 185.99,78.0954 186.001,78.0735C 186.286,77.5101 186.63,76.8177 186.414,76.2242C 186.377,76.1212 186.24,76.0415 186.132,76.0553C 186.035,76.0676 185.985,76.1929 185.949,76.2835 Z "/> <path fill="#230FD2" fill-opacity="0.803922" stroke-width="0.2" stroke-linecap="round" stroke-linejoin="round" d="M 156.099,76.2835C 155.838,76.751 155.539,77.2604 155.555,77.796C 155.562,78.0079 155.923,78.2437 156.099,78.1261L 156.099,76.2835 Z "/> </g> </g> <path fill="#FFFF00" fill-opacity="0.803922" stroke-width="0.2" stroke-linecap="round" stroke-linejoin="round" stroke="#000000" stroke-opacity="1" d="M 502.534,202.06L 500.722,195.298L 507.484,193.487L 509.296,200.248L 502.534,202.06 Z "/> <path fill="#FFFF00" fill-opacity="0.803922" stroke-width="0.2" stroke-linecap="round" stroke-linejoin="round" stroke="#000000" stroke-opacity="1" d="M 195.413,217.377L 192.295,229.014L 203.932,225.896L 195.413,217.377 Z "/> <path fill="#FFFF00" fill-opacity="0.803922" stroke-width="0.2" stroke-linecap="round" stroke-linejoin="round" stroke="#000000" stroke-opacity="1" d="M 536.408,38.6202C 535.907,36.7531 537.015,34.8339 538.882,34.3336C 540.75,33.8333 542.669,34.9414 543.169,36.8085C 543.669,38.6756 542.561,40.5948 540.694,41.0951C 538.827,41.5954 536.908,40.4874 536.408,38.6202 Z "/> <path fill="#FFFF00" fill-opacity="0.803922" stroke-width="0.2" stroke-linecap="round" stroke-linejoin="round" stroke="#000000" stroke-opacity="1" d="M 414.675,182.977L 404.472,162.328L 405.863,161.64L 416.067,182.289L 414.675,182.977 Z "/> <g> <line fill="none" stroke-width="0.2" stroke-linecap="round" stroke-linejoin="round" x1="328.294" y1="129.503" x2="322.063" y2="106.247"/> <g> <path fill="#FFFF00" fill-opacity="0.803922" stroke-width="0.2" stroke-linecap="round" stroke-linejoin="round" d="M 327.577,129.69C 328.055,129.561 328.564,129.494 329.012,129.305C 329.134,129.253 328.801,129.247 328.695,129.218C 328.387,129.132 328.08,129.045 327.787,128.945C 327.023,128.684 326.282,128.207 326.368,127.588C 326.424,127.184 326.743,126.755 327.087,126.358C 327.599,125.769 328.236,125.205 328.717,124.609C 329.312,123.873 329.505,122.962 329.014,122.384C 328.624,121.925 327.742,121.722 326.935,121.553C 326.457,121.681 325.951,121.753 325.5,121.938C 325.381,121.986 325.712,121.984 325.818,122.008C 326.128,122.078 326.437,122.149 326.731,122.235C 327.163,122.361 327.585,122.518 327.854,122.758C 328.093,122.971 328.203,123.263 328.163,123.561C 328.108,123.981 327.786,124.427 327.44,124.841C 326.715,125.708 325.678,126.566 325.368,127.46C 325.19,127.977 325.314,128.515 325.724,128.875C 326.161,129.26 326.891,129.475 327.577,129.69 Z "/> <path fill="#FFFF00" fill-opacity="0.803922" stroke-width="0.2" stroke-linecap="round" stroke-linejoin="round" d="M 325.5,121.938C 325.978,121.809 326.487,121.742 326.935,121.553C 327.057,121.502 326.723,121.495 326.618,121.466C 326.31,121.38 326.002,121.293 325.71,121.193C 324.946,120.932 324.205,120.455 324.291,119.836C 324.347,119.432 324.665,119.003 325.01,118.606C 325.521,118.017 326.158,117.453 326.64,116.857C 327.234,116.121 327.428,115.21 326.937,114.632C 326.546,114.173 325.665,113.97 324.858,113.801C 324.379,113.929 323.874,114.002 323.422,114.186C 323.304,114.234 323.635,114.232 323.741,114.256C 324.051,114.326 324.36,114.397 324.654,114.483C 325.086,114.609 325.508,114.766 325.777,115.006C 326.016,115.219 326.126,115.511 326.086,115.809C 326.031,116.229 325.709,116.675 325.362,117.089C 324.637,117.956 323.6,118.814 323.291,119.708C 323.112,120.225 323.237,120.763 323.646,121.123C 324.084,121.508 324.814,121.723 325.5,121.938 Z "/> <path fill="#FFFF00" fill-opacity="0.803922" stroke-width="0.2" stroke-linecap="round" stroke-linejoin="round" d="M 323.422,114.186C 323.901,114.057 324.41,113.99 324.858,113.801C 324.98,113.75 324.646,113.743 324.541,113.714C 324.233,113.628 323.925,113.541 323.632,113.441C 322.869,113.18 322.128,112.703 322.214,112.084C 322.27,111.68 322.588,111.251 322.932,110.854C 323.444,110.265 324.081,109.701 324.562,109.105C 325.157,108.369 325.351,107.458 324.859,106.88C 324.469,106.421 323.588,106.218 322.781,106.049C 322.302,106.177 321.797,106.25 321.345,106.434C 321.227,106.482 321.558,106.48 321.664,106.504C 321.974,106.574 322.283,106.645 322.577,106.731C 323.009,106.857 323.431,107.014 323.7,107.254C 323.939,107.467 324.049,107.759 324.009,108.057C 323.953,108.477 323.632,108.923 323.285,109.337C 322.56,110.204 321.523,111.063 321.214,111.956C 321.035,112.473 321.16,113.011 321.569,113.371C 322.007,113.756 322.737,113.971 323.422,114.186 Z "/> <path fill="#FFFF00" fill-opacity="0.803922" stroke-width="0.2" stroke-linecap="round" stroke-linejoin="round" d="M 321.345,106.434C 321.587,106.462 321.829,106.364 322.064,106.301C 322.309,106.236 322.548,106.148 322.781,106.049C 322.799,106.041 322.748,106.024 322.729,106.02C 322.231,105.915 321.619,105.792 321.202,106.084C 321.13,106.135 321.096,106.257 321.129,106.339C 321.159,106.412 321.267,106.425 321.345,106.434 Z "/> <path fill="#FFFF00" fill-opacity="0.803922" stroke-width="0.2" stroke-linecap="round" stroke-linejoin="round" d="M 327.577,129.69C 327.996,129.796 328.455,129.922 328.869,129.798C 329.032,129.748 329.141,129.418 329.012,129.305L 327.577,129.69 Z "/> </g> </g> <rect x="306.379" y="66.0958" fill="#FF0000" fill-opacity="0.803922" stroke-width="0.2" stroke-linecap="round" stroke-linejoin="round" stroke="#000000" stroke-opacity="1" width="8.86783" height="8.86786"/> <path fill="#FF0000" fill-opacity="0.803922" stroke-width="0.2" stroke-linecap="round" stroke-linejoin="round" stroke="#000000" stroke-opacity="1" d="M 522.808,97.9433L 515.178,111.16L 530.439,111.16L 522.808,97.9433 Z "/> <path fill="#FF0000" fill-opacity="0.803922" stroke-width="0.2" stroke-linecap="round" stroke-linejoin="round" stroke="#000000" stroke-opacity="1" d="M 121.714,213.848C 121.714,211.399 123.699,209.414 126.148,209.414C 128.597,209.414 130.582,211.399 130.582,213.848C 130.582,216.297 128.597,218.282 126.148,218.282C 123.699,218.282 121.714,216.297 121.714,213.848 Z "/> <path fill="#FF0000" fill-opacity="0.803922" stroke-width="0.2" stroke-linecap="round" stroke-linejoin="round" stroke="#000000" stroke-opacity="1" d="M 396.662,262.298L 390.947,233.686L 392.875,233.301L 398.591,261.913L 396.662,262.298 Z "/> <g> <line fill="none" stroke-width="0.2" stroke-linecap="round" stroke-linejoin="round" x1="213.03" y1="208.538" x2="213.03" y2="178.037"/> <g> <path fill="#FF0000" fill-opacity="0.803922" stroke-width="0.2" stroke-linecap="round" stroke-linejoin="round" d="M 212.089,208.539C 212.716,208.539 213.361,208.623 213.971,208.539C 214.138,208.516 213.731,208.399 213.612,208.328C 213.263,208.122 212.916,207.915 212.59,207.696C 211.741,207.127 210.99,206.3 211.299,205.57C 211.5,205.095 212.03,204.674 212.581,204.302C 213.401,203.748 214.366,203.267 215.149,202.696C 216.119,201.99 216.654,200.939 216.243,200.07C 215.916,199.381 214.904,198.843 213.971,198.372C 213.344,198.372 212.702,198.295 212.089,198.372C 211.928,198.392 212.334,198.499 212.455,198.563C 212.812,198.75 213.166,198.938 213.498,199.14C 213.986,199.436 214.451,199.766 214.701,200.148C 214.923,200.487 214.962,200.88 214.816,201.232C 214.61,201.727 214.071,202.168 213.511,202.561C 212.339,203.384 210.789,204.095 210.118,205.086C 209.729,205.66 209.705,206.359 210.088,206.934C 210.498,207.549 211.32,208.052 212.089,208.539 Z "/> <path fill="#FF0000" fill-opacity="0.803922" stroke-width="0.2" stroke-linecap="round" stroke-linejoin="round" d="M 212.089,198.372C 212.716,198.372 213.361,198.456 213.971,198.372C 214.138,198.349 213.731,198.232 213.612,198.162C 213.263,197.955 212.916,197.748 212.59,197.529C 211.741,196.96 210.99,196.133 211.299,195.404C 211.5,194.928 212.03,194.507 212.581,194.135C 213.401,193.581 214.366,193.1 215.149,192.529C 216.119,191.824 216.654,190.772 216.243,189.903C 215.916,189.214 214.904,188.676 213.971,188.205C 213.344,188.205 212.702,188.128 212.089,188.205C 211.928,188.225 212.334,188.332 212.455,188.396C 212.812,188.583 213.166,188.772 213.498,188.973C 213.986,189.269 214.451,189.6 214.701,189.981C 214.923,190.32 214.962,190.713 214.816,191.065C 214.61,191.56 214.071,192.001 213.511,192.394C 212.339,193.218 210.789,193.928 210.118,194.92C 209.729,195.493 209.705,196.192 210.088,196.768C 210.498,197.382 211.32,197.885 212.089,198.372 Z "/> <path fill="#FF0000" fill-opacity="0.803922" stroke-width="0.2" stroke-linecap="round" stroke-linejoin="round" d="M 212.089,188.205C 212.716,188.205 213.361,188.289 213.971,188.205C 214.138,188.182 213.731,188.065 213.612,187.995C 213.263,187.789 212.916,187.581 212.59,187.363C 211.741,186.793 210.99,185.966 211.299,185.237C 211.5,184.761 212.03,184.341 212.581,183.968C 213.401,183.414 214.366,182.933 215.149,182.362C 216.119,181.657 216.654,180.605 216.243,179.736C 215.916,179.047 214.904,178.51 213.971,178.038C 213.344,178.038 212.702,177.961 212.089,178.038C 211.928,178.058 212.334,178.165 212.455,178.229C 212.812,178.416 213.166,178.605 213.498,178.806C 213.986,179.102 214.451,179.433 214.701,179.814C 214.923,180.153 214.962,180.546 214.816,180.898C 214.61,181.393 214.071,181.834 213.511,182.227C 212.339,183.051 210.789,183.761 210.118,184.753C 209.729,185.327 209.705,186.025 210.088,186.601C 210.498,187.215 211.32,187.718 212.089,188.205 Z "/> <path fill="#FF0000" fill-opacity="0.803922" stroke-width="0.2" stroke-linecap="round" stroke-linejoin="round" d="M 212.089,178.038C 212.376,178.152 212.703,178.112 213.012,178.112C 213.333,178.112 213.654,178.082 213.971,178.038C 213.996,178.035 213.94,177.997 213.918,177.986C 213.342,177.694 212.635,177.342 212.028,177.563C 211.923,177.602 211.841,177.741 211.856,177.852C 211.868,177.951 211.996,178.002 212.089,178.038 Z "/> <path fill="#FF0000" fill-opacity="0.803922" stroke-width="0.2" stroke-linecap="round" stroke-linejoin="round" d="M 212.089,208.539C 212.566,208.806 213.087,209.112 213.634,209.095C 213.851,209.088 214.092,208.719 213.971,208.539L 212.089,208.539 Z "/> </g> </g> <path fill="#230FD2" fill-opacity="0.803922" stroke-width="0.2" stroke-linecap="round" stroke-linejoin="round" stroke="#000000" stroke-opacity="1" d="M 71.8789,134.641L 76.7258,129.794L 81.5727,134.641L 76.7258,139.488L 71.8789,134.641 Z "/> <path fill="#230FD2" fill-opacity="0.803922" stroke-width="0.2" stroke-linecap="round" stroke-linejoin="round" stroke="#000000" stroke-opacity="1" d="M 560.532,121.83L 549.137,124.883L 557.479,133.225L 560.532,121.83 Z "/> <path fill="#230FD2" fill-opacity="0.803922" stroke-width="0.2" stroke-linecap="round" stroke-linejoin="round" stroke="#000000" stroke-opacity="1" d="M 20.6685,146.717C 22.0069,145.378 24.177,145.378 25.5154,146.717C 26.8539,148.055 26.8539,150.225 25.5154,151.564C 24.177,152.902 22.0069,152.902 20.6685,151.564C 19.3301,150.225 19.3301,148.055 20.6685,146.717 Z "/> <path fill="#230FD2" fill-opacity="0.803922" stroke-width="0.2" stroke-linecap="round" stroke-linejoin="round" stroke="#000000" stroke-opacity="1" d="M 247.329,133.402L 258.605,113.87L 259.922,114.63L 248.645,134.162L 247.329,133.402 Z "/> <g> <line fill="none" stroke-width="0.2" stroke-linecap="round" stroke-linejoin="round" x1="352.994" y1="242.813" x2="369.665" y2="226.142"/> <g> <path fill="#230FD2" fill-opacity="0.803922" stroke-width="0.2" stroke-linecap="round" stroke-linejoin="round" d="M 352.479,242.303C 352.822,242.646 353.129,243.045 353.508,243.332C 353.612,243.41 353.454,243.124 353.427,243.021C 353.349,242.717 353.272,242.414 353.214,242.117C 353.061,241.341 353.103,240.479 353.67,240.249C 354.04,240.099 354.56,240.159 355.064,240.257C 355.815,240.402 356.605,240.666 357.346,240.783C 358.261,240.927 359.129,240.644 359.379,239.945C 359.577,239.389 359.317,238.542 359.065,237.775C 358.722,237.432 358.414,237.039 358.036,236.746C 357.937,236.669 358.101,236.949 358.133,237.051C 358.225,237.348 358.316,237.645 358.387,237.936C 358.492,238.364 358.565,238.799 358.494,239.145C 358.43,239.451 358.236,239.688 357.964,239.8C 357.581,239.958 357.045,239.904 356.524,239.813C 355.434,239.623 354.198,239.163 353.289,239.339C 352.763,239.44 352.368,239.809 352.263,240.333C 352.151,240.893 352.326,241.617 352.479,242.303 Z "/> <path fill="#230FD2" fill-opacity="0.803922" stroke-width="0.2" stroke-linecap="round" stroke-linejoin="round" d="M 358.036,236.746C 358.379,237.089 358.686,237.488 359.065,237.775C 359.169,237.853 359.011,237.567 358.984,237.464C 358.906,237.16 358.829,236.857 358.771,236.56C 358.618,235.784 358.66,234.922 359.227,234.692C 359.597,234.542 360.117,234.602 360.621,234.7C 361.372,234.845 362.162,235.109 362.903,235.226C 363.818,235.37 364.686,235.087 364.935,234.388C 365.134,233.832 364.874,232.985 364.622,232.218C 364.279,231.875 363.971,231.482 363.593,231.189C 363.494,231.112 363.658,231.392 363.69,231.494C 363.782,231.791 363.873,232.088 363.944,232.379C 364.049,232.807 364.122,233.242 364.051,233.588C 363.987,233.894 363.793,234.131 363.521,234.243C 363.138,234.401 362.602,234.347 362.081,234.256C 360.991,234.066 359.755,233.606 358.846,233.782C 358.32,233.883 357.925,234.252 357.82,234.776C 357.708,235.336 357.883,236.06 358.036,236.746 Z "/> <path fill="#230FD2" fill-opacity="0.803922" stroke-width="0.2" stroke-linecap="round" stroke-linejoin="round" d="M 363.593,231.189C 363.936,231.532 364.243,231.931 364.622,232.218C 364.726,232.296 364.568,232.01 364.541,231.907C 364.463,231.603 364.386,231.3 364.328,231.003C 364.175,230.227 364.217,229.365 364.784,229.135C 365.154,228.985 365.674,229.045 366.178,229.143C 366.929,229.288 367.719,229.552 368.46,229.669C 369.375,229.813 370.243,229.531 370.492,228.831C 370.691,228.275 370.431,227.428 370.179,226.661C 369.836,226.318 369.528,225.925 369.15,225.632C 369.051,225.555 369.215,225.835 369.246,225.937C 369.339,226.234 369.43,226.531 369.501,226.822C 369.606,227.25 369.679,227.685 369.608,228.031C 369.544,228.337 369.35,228.574 369.078,228.686C 368.695,228.844 368.159,228.79 367.638,228.699C 366.548,228.509 365.312,228.049 364.403,228.225C 363.877,228.326 363.482,228.695 363.377,229.219C 363.265,229.779 363.44,230.503 363.593,231.189 Z "/> <path fill="#230FD2" fill-opacity="0.803922" stroke-width="0.2" stroke-linecap="round" stroke-linejoin="round" d="M 369.15,225.632C 369.245,225.851 369.446,226.008 369.615,226.177C 369.79,226.352 369.982,226.512 370.179,226.661C 370.195,226.673 370.185,226.622 370.179,226.603C 370.023,226.129 369.829,225.55 369.377,225.339C 369.298,225.303 369.178,225.334 369.125,225.403C 369.078,225.464 369.12,225.562 369.15,225.632 Z "/> <path fill="#230FD2" fill-opacity="0.803922" stroke-width="0.2" stroke-linecap="round" stroke-linejoin="round" d="M 352.479,242.303C 352.594,242.71 352.712,243.162 353.02,243.452C 353.142,243.566 353.475,243.496 353.508,243.332L 352.479,242.303 Z "/> </g> </g> </g> </svg>
